<svg xmlns="http://www.w3.org/2000/svg" viewBox="0 0 934 1164" width="934" height="1164">
	<style>
		tspan { white-space:pre }
		.shp0 { fill: #231f20 } 
		.shp1 { fill: #999999 } 
		.shp2 { fill: #00833e } 
		.shp3 { fill: #cf0a2c } 
		.shp4 { fill: #986e30 } 
	</style>
	<g id="Layer">
		<path id="Layer" class="shp0" d="M686.03,388.94c6.82,-0.55 15.21,2.07 15.21,7.51c2.38,-2.08 6.53,-7.12 -1.92,-13.89c-17.22,-13.95 -49.67,-18.9 -77.57,-21.71c9.84,4.31 19.57,7.17 30.88,15.38c-15.64,20.94 14.19,40.38 25.57,20.85c-6.38,19.06 -39.65,10.42 -36.54,-16.75c-10.41,31.46 38.84,49.22 44.36,8.62z" />
		<path id="Layer" class="shp0" d="M724.72,431.06c3.6,0.45 6.46,-1.19 7.21,-4.03c0.82,-3.18 -1.61,-6.63 -5.33,-7.59c-3.94,-1.04 -7.7,0.82 -8.51,3.99c0.57,0.09 1.25,0.04 2.09,0.26c3.61,0.92 6.01,3.6 5.39,5.96c-0.17,0.62 -0.36,1.02 -0.86,1.4z" />
		<path id="Layer" class="shp0" d="M407.11,464.47c-2.12,2.58 -1.27,1.79 0,0z" />
		<path id="Layer" class="shp0" d="M427.38,475.34c-0.36,0.38 -0.76,0.83 -1.09,1.15c-6.4,6.79 -0.58,2.16 1.09,-1.15z" />
		<path id="Layer" class="shp0" d="M822.91,620.46c-81.05,6.37 -137.87,-19.31 -158.43,-43.7c-19.69,-21.88 -21.37,-48.04 -17,-64.9c1.65,-6.39 2.3,-8.97 15.34,-23.22c9.38,-10.34 26.83,-18.04 34.29,-22.49c10.8,8.09 31.03,9.21 40.17,9.97c0.73,4.73 -1.11,9.43 -5.04,17.61c15.76,-6.57 21.86,-23.57 23.75,-30.88c1.82,-7.06 3.4,-26.95 -15.38,-43.83c-5.91,-5.42 -12.81,-30.15 -18.76,-39.36c-7.02,-10.35 -74.03,-81.47 -154.87,-54.42c-73.21,24.41 -116.17,88.54 -155.69,134.3c-1.56,1.81 -2.72,3.16 -3.56,4.18l9.97,11.55c9.9,-4.11 10.93,-2.38 9.68,0.06c12.16,-12.98 43.85,-51.26 57.32,-64.93c34,-35.64 76.39,-51.47 109.42,-54.1c-22.22,-3.56 -35.57,-2.53 -49.6,-1.1c46.7,-31.04 112.22,-28.47 166.15,25.08c18.4,18.17 13.29,26.74 19.7,32.5c21.58,20.76 18.5,38.07 9.87,48c-1.7,-2.45 -12.62,-5.32 -23.22,-14.67c-5.55,-2.71 -39.86,-5.25 -62.98,8.4c-12.85,8.68 -22.66,24.91 -26.19,38.56c-5.14,19.81 -13.18,51.92 31.88,99.93c0,0 43.78,52.09 153.7,44.05c30.13,-2.21 41.05,-13.38 63.68,-24.63l14.88,-9.19c-20.44,4.37 -40.55,15.03 -69.09,17.22z" />
		<path id="Layer" class="shp0" d="M403.56,458.89l4.11,4.76c2.2,-3.32 4.58,-8.43 -4.11,-4.76z" />
		<path id="Layer" class="shp0" d="M407.11,464.47c0.17,-0.22 0.4,-0.48 0.63,-0.75l-0.06,-0.07c-0.19,0.29 -0.39,0.57 -0.57,0.82z" />
		<path id="Layer" class="shp0" d="M180.58,69.51c-9.83,76.22 21.88,140.93 54.19,194.14c50.58,83.3 118.62,160.15 214.08,241.86c37.53,32.11 41.54,55.66 16.49,96.91c-25.86,42.63 -36.5,84.5 -32.38,127.81c2.83,-39.74 17.99,-76.85 45.43,-110.42c41.96,-51.3 41.91,-55.24 -0.83,-105.63c-5.25,-6.2 -11.14,-12.08 -17.37,-18.32l-3.12,-3.16c-105.19,-105.84 -170.69,-203.91 -206.19,-308.6c-16.54,-48.82 -29.25,-99.53 -41.54,-148.55c-2.36,-9.4 -4.7,-18.79 -7.1,-28.2c-11.38,17.9 -18.63,38.69 -21.66,62.16z" />
		<g id="Layer">
			<path id="Layer" class="shp1" d="M313.23,609.1c3.46,0.92 7.03,-1.13 7.97,-4.58c0.92,-3.49 -1.13,-7.06 -4.6,-8c-3.47,-0.93 -7.04,1.13 -7.96,4.61c-0.96,3.46 1.1,7.03 4.59,7.97z" />
			<path id="Layer" class="shp1" d="M251.4,646.19c0.92,-3.48 -1.13,-7.05 -4.6,-7.99c-3.46,-0.93 -7.04,1.13 -7.95,4.6c-0.96,3.47 1.1,7.03 4.59,7.97c3.46,0.92 7.03,-1.13 7.97,-4.59z" />
			<path id="Layer" class="shp1" d="M254.5,653.77c-3.47,-0.94 -7.04,1.13 -7.96,4.61c-0.96,3.46 1.1,7.03 4.59,7.96c3.46,0.93 7.03,-1.13 7.97,-4.58c0.91,-3.49 -1.13,-7.05 -4.6,-7.99z" />
			<path id="Layer" class="shp1" d="M261.86,682.82c-0.96,3.46 1.1,7.04 4.59,7.97c3.46,0.92 7.03,-1.13 7.97,-4.58c0.92,-3.49 -1.13,-7.06 -4.6,-7.98c-3.45,-0.93 -7.04,1.13 -7.95,4.6z" />
			<path id="Layer" class="shp1" d="M286.68,702.02c0.92,-3.49 -1.12,-7.05 -4.6,-7.98c-3.46,-0.93 -7.04,1.13 -7.96,4.6c-0.95,3.46 1.11,7.03 4.59,7.96c3.47,0.93 7.03,-1.13 7.97,-4.58z" />
			<path id="Layer" class="shp1" d="M299,713.43c0.92,-3.48 -1.12,-7.05 -4.6,-7.99c-3.46,-0.93 -7.04,1.14 -7.96,4.62c-0.96,3.46 1.1,7.03 4.59,7.97c3.47,0.92 7.04,-1.14 7.97,-4.6z" />
			<path id="Layer" class="shp1" d="M320.78,627.25c3.47,0.92 7.03,-1.13 7.97,-4.59c0.92,-3.48 -1.12,-7.05 -4.6,-7.98c-3.47,-0.93 -7.04,1.13 -7.96,4.6c-0.96,3.47 1.1,7.03 4.58,7.97z" />
			<path id="Layer" class="shp1" d="M332.24,645.02c3.46,0.92 7.03,-1.13 7.97,-4.58c0.92,-3.49 -1.13,-7.05 -4.6,-7.98c-3.47,-0.93 -7.04,1.13 -7.96,4.6c-0.96,3.46 1.1,7.03 4.59,7.97z" />
			<path id="Layer" class="shp1" d="M306.69,616.12c1.2,-4.56 -1.46,-9.21 -6,-10.44c-4.54,-1.21 -9.22,1.47 -10.42,6.02c-1.25,4.53 1.46,9.2 6.01,10.42c4.52,1.22 9.19,-1.47 10.41,-5.99z" />
			<path id="Layer" class="shp1" d="M281.18,616.43c-4.58,-1.23 -9.28,1.48 -10.5,6.06c-1.26,4.57 1.47,9.26 6.05,10.5c4.56,1.24 9.27,-1.48 10.5,-6.05c1.22,-4.58 -1.47,-9.27 -6.05,-10.51z" />
			<path id="Layer" class="shp1" d="M267.53,636.91c1.05,-4 -1.3,-8.1 -5.3,-9.18c-3.98,-1.08 -8.12,1.3 -9.17,5.29c-1.09,3.99 1.28,8.12 5.29,9.18c3.98,1.07 8.09,-1.3 9.17,-5.29z" />
			<path id="Layer" class="shp1" d="M266.19,659.23c3.98,1.07 8.09,-1.3 9.18,-5.29c1.05,-4.01 -1.3,-8.1 -5.3,-9.18c-3.99,-1.08 -8.12,1.3 -9.17,5.29c-1.09,3.99 1.28,8.1 5.29,9.18z" />
			<path id="Layer" class="shp1" d="M285.16,668.92c1.05,-4 -1.3,-8.1 -5.3,-9.18c-3.98,-1.08 -8.12,1.28 -9.17,5.3c-1.09,3.98 1.28,8.1 5.28,9.17c3.99,1.07 8.1,-1.3 9.18,-5.29z" />
			<path id="Layer" class="shp1" d="M295.63,684.02c1.05,-4 -1.3,-8.1 -5.3,-9.18c-3.99,-1.08 -8.12,1.3 -9.17,5.3c-1.09,3.98 1.28,8.11 5.28,9.17c3.98,1.06 8.1,-1.3 9.18,-5.29z" />
			<path id="Layer" class="shp1" d="M307.44,696.69c1.05,-4.01 -1.3,-8.11 -5.3,-9.19c-3.99,-1.08 -8.12,1.29 -9.17,5.3c-1.1,3.98 1.28,8.11 5.28,9.17c3.98,1.08 8.1,-1.3 9.18,-5.28z" />
			<path id="Layer" class="shp1" d="M278.66,639.64c-1.25,4.58 1.47,9.27 6.05,10.51c4.56,1.23 9.27,-1.49 10.5,-6.06c1.22,-4.58 -1.47,-9.27 -6.05,-10.51c-4.58,-1.23 -9.27,1.47 -10.5,6.05z" />
			<path id="Layer" class="shp1" d="M305.25,660.59c1.21,-4.58 -1.48,-9.27 -6.06,-10.51c-4.57,-1.23 -9.27,1.48 -10.5,6.05c-1.25,4.58 1.47,9.27 6.06,10.51c4.55,1.22 9.27,-1.5 10.5,-6.05z" />
			<path id="Layer" class="shp1" d="M317.84,675.72c1.21,-4.58 -1.48,-9.27 -6.05,-10.51c-4.58,-1.23 -9.27,1.48 -10.49,6.05c-1.25,4.58 1.47,9.29 6.05,10.51c4.55,1.22 9.27,-1.49 10.49,-6.05z" />
			<path id="Layer" class="shp1" d="M315.9,636.18c1.21,-4.56 -1.46,-9.21 -6,-10.43c-4.55,-1.23 -9.22,1.47 -10.42,6.01c-1.25,4.54 1.46,9.2 6.01,10.42c4.53,1.22 9.2,-1.47 10.41,-6z" />
			<path id="Layer" class="shp1" d="M329.2,655.78c1.21,-4.56 -1.46,-9.22 -6.01,-10.44c-4.54,-1.22 -9.21,1.47 -10.41,6.02c-1.25,4.53 1.46,9.2 6.01,10.42c4.53,1.22 9.2,-1.48 10.41,-6z" />
			<path id="Layer" class="shp1" d="M386.97,578.66c1.54,0.42 3.13,-0.49 3.54,-2.04c0.42,-1.52 -0.49,-3.11 -2.03,-3.52c-1.53,-0.42 -3.12,0.5 -3.55,2.03c-0.39,1.54 0.51,3.11 2.04,3.53z" />
			<path id="Layer" class="shp1" d="M379.16,579.82c0.47,-1.71 -0.55,-3.48 -2.26,-3.94c-1.73,-0.46 -3.49,0.56 -3.96,2.27c-0.46,1.71 0.55,3.48 2.27,3.95c1.72,0.46 3.49,-0.55 3.94,-2.28z" />
			<path id="Layer" class="shp1" d="M364.3,585.78c1.98,0.52 4,-0.63 4.52,-2.62c0.54,-1.95 -0.62,-3.98 -2.58,-4.51c-1.99,-0.53 -4,0.64 -4.54,2.61c-0.52,1.96 0.65,3.98 2.6,4.52z" />
			<path id="Layer" class="shp1" d="M217.61,660.37c-1.98,-0.53 -4,0.64 -4.52,2.62c-0.52,1.96 0.65,3.97 2.6,4.52c1.98,0.51 3.99,-0.64 4.51,-2.62c0.54,-1.95 -0.61,-3.98 -2.59,-4.52z" />
			<path id="Layer" class="shp1" d="M203.02,677.88c1.74,0.46 3.51,-0.56 3.96,-2.29c0.48,-1.73 -0.55,-3.49 -2.28,-3.95c-1.71,-0.47 -3.49,0.54 -3.97,2.26c-0.45,1.73 0.57,3.49 2.29,3.97z" />
			<path id="Layer" class="shp1" d="M206.59,685.49c-0.44,1.71 0.57,3.49 2.29,3.96c1.74,0.45 3.51,-0.57 3.96,-2.29c0.48,-1.72 -0.55,-3.49 -2.28,-3.95c-1.73,-0.46 -3.5,0.55 -3.98,2.28z" />
			<path id="Layer" class="shp1" d="M222.49,681.56c1.98,0.52 4,-0.63 4.52,-2.61c0.54,-1.95 -0.61,-3.98 -2.59,-4.51c-1.97,-0.53 -4,0.63 -4.53,2.6c-0.52,1.96 0.65,3.97 2.6,4.52z" />
			<path id="Layer" class="shp1" d="M267.34,731.16c-1.98,-0.55 -4,0.62 -4.53,2.6c-0.52,1.95 0.65,3.97 2.6,4.52c1.98,0.51 4,-0.64 4.52,-2.62c0.54,-1.96 -0.61,-3.98 -2.59,-4.5z" />
			<path id="Layer" class="shp1" d="M279.94,751.47c1.98,0.52 4,-0.63 4.52,-2.61c0.54,-1.95 -0.62,-3.99 -2.59,-4.52c-1.98,-0.54 -4,0.64 -4.52,2.62c-0.52,1.95 0.64,3.97 2.6,4.51z" />
			<path id="Layer" class="shp1" d="M277.43,742.71c0.54,-1.95 -0.63,-3.97 -2.58,-4.52c-1.99,-0.53 -4.01,0.63 -4.54,2.6c-0.52,1.97 0.64,3.98 2.6,4.52c1.98,0.51 4,-0.63 4.52,-2.61z" />
			<path id="Layer" class="shp1" d="M353.41,590.3c2.36,0.63 4.76,-0.76 5.4,-3.12c0.63,-2.33 -0.75,-4.75 -3.1,-5.38c-2.37,-0.63 -4.77,0.76 -5.41,3.11c-0.61,2.32 0.77,4.74 3.12,5.39z" />
			<path id="Layer" class="shp1" d="M341.92,594.74c2.55,0.68 5.17,-0.83 5.85,-3.39c0.7,-2.52 -0.81,-5.13 -3.36,-5.82c-2.55,-0.69 -5.16,0.82 -5.86,3.37c-0.67,2.51 0.84,5.15 3.37,5.84z" />
			<path id="Layer" class="shp1" d="M229.04,658.16c2.55,0.68 5.17,-0.82 5.84,-3.37c0.69,-2.53 -0.81,-5.14 -3.36,-5.83c-2.55,-0.69 -5.16,0.83 -5.86,3.36c-0.67,2.53 0.84,5.16 3.37,5.84z" />
			<path id="Layer" class="shp1" d="M237.35,674.78c2.55,0.68 5.17,-0.82 5.85,-3.38c0.69,-2.53 -0.81,-5.14 -3.36,-5.83c-2.55,-0.69 -5.16,0.82 -5.86,3.37c-0.66,2.52 0.85,5.14 3.37,5.84z" />
			<path id="Layer" class="shp1" d="M266.9,705.39c-2.55,-0.69 -5.16,0.83 -5.86,3.37c-0.67,2.51 0.84,5.14 3.37,5.84c2.55,0.67 5.17,-0.83 5.84,-3.38c0.7,-2.52 -0.81,-5.14 -3.36,-5.83z" />
			<path id="Layer" class="shp1" d="M274.38,725.05c2.55,0.67 5.17,-0.83 5.85,-3.38c0.7,-2.53 -0.82,-5.14 -3.36,-5.83c-2.55,-0.69 -5.16,0.83 -5.86,3.37c-0.66,2.52 0.84,5.15 3.37,5.84z" />
			<path id="Layer" class="shp1" d="M290.81,731.45c0.7,-2.53 -0.81,-5.14 -3.36,-5.82c-2.55,-0.69 -5.16,0.82 -5.86,3.36c-0.66,2.52 0.84,5.15 3.37,5.84c2.55,0.68 5.17,-0.83 5.85,-3.38z" />
			<path id="Layer" class="shp1" d="M331.04,590.68c-3.13,-0.84 -6.32,1 -7.17,4.12c-0.82,3.09 1.01,6.29 4.12,7.15c3.12,0.82 6.31,-1 7.15,-4.14c0.86,-3.1 -1,-6.28 -4.1,-7.12z" />
			<path id="Layer" class="shp1" d="M330.12,609.7c-0.81,3.1 1.01,6.29 4.12,7.15c3.12,0.82 6.31,-1 7.15,-4.13c0.86,-3.1 -1,-6.3 -4.11,-7.13c-3.12,-0.84 -6.31,0.99 -7.16,4.11z" />
			<path id="Layer" class="shp1" d="M343.46,632.42c3.12,0.82 6.31,-1 7.15,-4.13c0.86,-3.1 -1,-6.28 -4.1,-7.12c-3.13,-0.84 -6.32,1 -7.17,4.1c-0.82,3.1 1.01,6.3 4.12,7.15z" />
			<path id="Layer" class="shp1" d="M352.54,604.61c0.7,-2.54 -0.82,-5.14 -3.36,-5.83c-2.55,-0.68 -5.16,0.82 -5.86,3.36c-0.66,2.53 0.85,5.15 3.37,5.84c2.55,0.67 5.17,-0.82 5.85,-3.37z" />
			<path id="Layer" class="shp1" d="M354.34,621.47c2.55,0.68 5.17,-0.82 5.85,-3.38c0.7,-2.53 -0.81,-5.14 -3.36,-5.83c-2.55,-0.69 -5.16,0.82 -5.85,3.37c-0.67,2.52 0.84,5.14 3.37,5.84z" />
			<path id="Layer" class="shp1" d="M362.69,598.52c0.64,-2.32 -0.75,-4.74 -3.1,-5.37c-2.36,-0.63 -4.77,0.76 -5.41,3.11c-0.61,2.33 0.77,4.73 3.11,5.39c2.37,0.62 4.77,-0.75 5.4,-3.13z" />
			<path id="Layer" class="shp1" d="M368.63,609.47c0.63,-2.33 -0.75,-4.74 -3.1,-5.38c-2.36,-0.63 -4.76,0.76 -5.4,3.12c-0.61,2.32 0.77,4.74 3.11,5.38c2.36,0.62 4.76,-0.76 5.4,-3.12z" />
			<path id="Layer" class="shp1" d="M367.63,595.58c1.97,0.52 3.99,-0.63 4.51,-2.62c0.54,-1.95 -0.63,-3.98 -2.59,-4.51c-1.98,-0.53 -4,0.63 -4.53,2.61c-0.52,1.96 0.65,3.98 2.61,4.52z" />
			<path id="Layer" class="shp1" d="M372.25,604.64c1.98,0.52 3.99,-0.63 4.52,-2.61c0.54,-1.95 -0.61,-3.98 -2.59,-4.52c-1.98,-0.52 -4,0.65 -4.52,2.62c-0.52,1.96 0.64,3.98 2.6,4.51z" />
			<path id="Layer" class="shp1" d="M381.2,597.06c1.72,0.46 3.49,-0.55 3.95,-2.28c0.46,-1.72 -0.56,-3.47 -2.26,-3.93c-1.73,-0.47 -3.48,0.55 -3.96,2.26c-0.46,1.7 0.55,3.47 2.27,3.94z" />
			<path id="Layer" class="shp1" d="M381.68,587.48c0.47,-1.7 -0.55,-3.45 -2.26,-3.92c-1.73,-0.47 -3.49,0.55 -3.95,2.27c-0.46,1.7 0.55,3.47 2.26,3.94c1.72,0.46 3.49,-0.54 3.94,-2.28z" />
			<path id="Layer" class="shp1" d="M390.98,589.44c1.54,0.4 3.13,-0.49 3.54,-2.04c0.42,-1.53 -0.49,-3.11 -2.03,-3.52c-1.55,-0.42 -3.12,0.5 -3.54,2.02c-0.4,1.55 0.5,3.12 2.04,3.54z" />
			<path id="Layer" class="shp1" d="M401.47,573.81c0.34,-1.3 -0.43,-2.64 -1.73,-2.98c-1.3,-0.35 -2.65,0.42 -2.99,1.73c-0.35,1.3 0.42,2.64 1.72,2.99c1.31,0.35 2.65,-0.42 3,-1.74z" />
			<path id="Layer" class="shp1" d="M199.16,693.2c0,-1.35 -1.1,-2.45 -2.45,-2.45c-1.35,0 -2.45,1.1 -2.45,2.45c0,1.35 1.1,2.45 2.45,2.45c1.35,0 2.45,-1.1 2.45,-2.45z" />
			<path id="Layer" class="shp1" d="M267.87,756.1c-1.3,-0.34 -2.65,0.42 -2.99,1.73c-0.35,1.3 0.42,2.65 1.72,3c1.31,0.34 2.65,-0.42 3.01,-1.73c0.33,-1.31 -0.43,-2.65 -1.73,-2.99z" />
			<path id="Layer" class="shp1" d="M278.29,765.37c0,-1.35 -1.09,-2.44 -2.44,-2.44c-1.35,0 -2.44,1.09 -2.44,2.44c0,1.35 1.09,2.44 2.44,2.44c1.35,0 2.44,-1.09 2.44,-2.44z" />
			<path id="Layer" class="shp1" d="M194.84,686.41c0.34,-1.32 -0.42,-2.65 -1.73,-3c-1.3,-0.35 -2.65,0.42 -2.99,1.72c-0.36,1.3 0.42,2.66 1.72,3c1.31,0.36 2.65,-0.42 3.01,-1.72z" />
			<path id="Layer" class="shp1" d="M400.9,582.4c1.32,0.33 2.66,-0.42 3.01,-1.74c0.34,-1.31 -0.43,-2.65 -1.73,-2.99c-1.3,-0.35 -2.66,0.42 -2.99,1.72c-0.36,1.3 0.42,2.64 1.72,3z" />
			<path id="Layer" class="shp1" d="M418.17,569.03c-0.15,0.53 0.18,1.08 0.71,1.21c0.53,0.15 1.07,-0.16 1.21,-0.7c0.15,-0.53 -0.17,-1.08 -0.68,-1.23c-0.54,-0.13 -1.09,0.19 -1.23,0.72z" />
			<path id="Layer" class="shp1" d="M171.63,707.79c0.53,0.15 1.07,-0.17 1.21,-0.7c0.15,-0.54 -0.17,-1.09 -0.69,-1.23c-0.52,-0.13 -1.07,0.18 -1.22,0.71c-0.14,0.53 0.18,1.07 0.71,1.21z" />
			<path id="Layer" class="shp1" d="M267.88,795.04c0.53,0.15 1.08,-0.17 1.21,-0.7c0.15,-0.54 -0.17,-1.08 -0.68,-1.23c-0.54,-0.13 -1.09,0.18 -1.23,0.71c-0.15,0.52 0.17,1.07 0.7,1.22z" />
			<path id="Layer" class="shp1" d="M411.32,570.93c0.25,-0.88 -0.27,-1.76 -1.15,-1.99c-0.86,-0.24 -1.77,0.27 -2,1.13c-0.24,0.88 0.29,1.77 1.14,2.01c0.88,0.23 1.77,-0.28 2,-1.15z" />
			<path id="Layer" class="shp1" d="M183.31,702.44c0.88,0.24 1.77,-0.28 2,-1.15c0.25,-0.87 -0.27,-1.76 -1.14,-1.99c-0.86,-0.24 -1.77,0.27 -1.99,1.14c-0.25,0.87 0.28,1.76 1.13,2z" />
			<path id="Layer" class="shp1" d="M182.84,696.68c0.25,-0.88 -0.27,-1.76 -1.14,-1.99c-0.87,-0.25 -1.78,0.27 -1.99,1.14c-0.25,0.87 0.28,1.77 1.13,2c0.88,0.24 1.77,-0.27 2,-1.14z" />
			<path id="Layer" class="shp1" d="M268.79,777.93c0.25,-0.88 -0.27,-1.76 -1.14,-1.99c-0.86,-0.24 -1.77,0.27 -2,1.13c-0.24,0.88 0.29,1.76 1.14,2c0.88,0.24 1.77,-0.27 2,-1.15z" />
			<path id="Layer" class="shp1" d="M271.35,782.54c0.87,0.23 1.76,-0.28 1.99,-1.16c0.25,-0.88 -0.27,-1.76 -1.14,-1.98c-0.86,-0.24 -1.77,0.28 -1.99,1.14c-0.25,0.86 0.28,1.76 1.14,2z" />
			<path id="Layer" class="shp1" d="M410.72,576.38c0.87,0.23 1.77,-0.28 2,-1.15c0.25,-0.88 -0.27,-1.76 -1.15,-1.99c-0.86,-0.25 -1.76,0.27 -1.98,1.13c-0.25,0.88 0.28,1.77 1.13,2.01z" />
		</g>
		<g id="Layer">
			<path id="Layer" class="shp2" d="M260.3,515.18c3.46,-3.27 3.67,-8.71 0.42,-12.2c-3.23,-3.49 -8.7,-3.67 -12.18,-0.42c-3.48,3.23 -3.67,8.7 -0.42,12.19c3.24,3.46 8.7,3.66 12.18,0.42z" />
			<path id="Layer" class="shp2" d="M246.72,538.66c3.24,3.46 8.7,3.66 12.18,0.42c3.47,-3.27 3.67,-8.71 0.42,-12.19c-3.24,-3.5 -8.71,-3.68 -12.18,-0.42c-3.48,3.22 -3.67,8.69 -0.42,12.19z" />
			<path id="Layer" class="shp2" d="M245.32,560.71c3.23,3.46 8.69,3.65 12.18,0.41c3.47,-3.25 3.67,-8.7 0.42,-12.18c-3.24,-3.5 -8.7,-3.68 -12.19,-0.42c-3.48,3.23 -3.67,8.7 -0.41,12.19z" />
			<path id="Layer" class="shp2" d="M271.07,545.34c3.24,3.45 8.7,3.65 12.18,0.42c3.47,-3.27 3.67,-8.71 0.42,-12.21c-3.23,-3.47 -8.69,-3.66 -12.18,-0.41c-3.49,3.24 -3.68,8.71 -0.42,12.2z" />
			<path id="Layer" class="shp2" d="M271.69,561.77c-3.49,3.24 -3.68,8.71 -0.42,12.2c3.24,3.46 8.7,3.66 12.18,0.42c3.47,-3.27 3.68,-8.71 0.42,-12.2c-3.24,-3.48 -8.7,-3.66 -12.18,-0.42z" />
			<path id="Layer" class="shp2" d="M287.37,517.08c3.46,-3.27 3.67,-8.7 0.41,-12.19c-3.23,-3.5 -8.71,-3.68 -12.18,-0.42c-3.48,3.24 -3.66,8.71 -0.42,12.19c3.24,3.46 8.71,3.66 12.19,0.42z" />
			<path id="Layer" class="shp2" d="M216.84,542.13c3.68,3.94 9.89,4.15 13.87,0.48c3.94,-3.73 4.17,-9.9 0.48,-13.87c-3.7,-3.98 -9.92,-4.2 -13.87,-0.48c-3.97,3.68 -4.19,9.91 -0.48,13.87z" />
			<path id="Layer" class="shp2" d="M219.79,499c-3.96,3.69 -4.18,9.91 -0.48,13.87c3.69,3.94 9.89,4.16 13.87,0.48c3.95,-3.72 4.18,-9.89 0.48,-13.87c-3.7,-3.97 -9.92,-4.19 -13.87,-0.48z" />
			<path id="Layer" class="shp2" d="M216.84,568.71c3.68,3.94 9.89,4.16 13.87,0.48c3.94,-3.73 4.17,-9.91 0.48,-13.87c-3.7,-3.98 -9.92,-4.2 -13.87,-0.48c-3.97,3.69 -4.19,9.9 -0.48,13.88z" />
			<path id="Layer" class="shp2" d="M220.41,582.45c-3.96,3.68 -4.19,9.9 -0.48,13.87c3.68,3.94 9.89,4.16 13.87,0.47c3.94,-3.72 4.17,-9.9 0.48,-13.87c-3.7,-3.97 -9.92,-4.19 -13.87,-0.47z" />
			<path id="Layer" class="shp2" d="M258.61,583.88c3.46,-3.27 3.67,-8.71 0.42,-12.19c-3.24,-3.5 -8.7,-3.68 -12.18,-0.42c-3.48,3.23 -3.67,8.7 -0.42,12.19c3.24,3.47 8.7,3.66 12.18,0.43z" />
			<path id="Layer" class="shp2" d="M207.62,614.21c3.46,-3.26 3.67,-8.7 0.42,-12.19c-3.23,-3.5 -8.69,-3.68 -12.18,-0.43c-3.49,3.24 -3.67,8.71 -0.42,12.2c3.24,3.46 8.7,3.66 12.18,0.42z" />
			<path id="Layer" class="shp2" d="M203.5,590.12c3.47,-3.27 3.67,-8.71 0.42,-12.21c-3.23,-3.47 -8.7,-3.66 -12.18,-0.41c-3.48,3.23 -3.67,8.7 -0.42,12.19c3.24,3.46 8.7,3.66 12.18,0.43z" />
			<path id="Layer" class="shp2" d="M163.29,580.38c3.24,3.46 8.7,3.66 12.18,0.42c3.46,-3.26 3.67,-8.7 0.42,-12.19c-3.24,-3.48 -8.7,-3.68 -12.18,-0.42c-3.49,3.23 -3.68,8.7 -0.42,12.19z" />
			<path id="Layer" class="shp2" d="M163.29,538.1c3.24,3.46 8.7,3.64 12.18,0.42c3.46,-3.26 3.67,-8.7 0.42,-12.18c-3.24,-3.5 -8.7,-3.68 -12.18,-0.42c-3.49,3.23 -3.68,8.71 -0.42,12.19z" />
			<path id="Layer" class="shp2" d="M177.75,513.18c3.46,-3.26 3.67,-8.71 0.42,-12.2c-3.23,-3.48 -8.7,-3.66 -12.18,-0.42c-3.49,3.24 -3.67,8.71 -0.42,12.2c3.24,3.46 8.7,3.64 12.18,0.42z" />
			<path id="Layer" class="shp2" d="M178.16,606.92c3.46,-3.26 3.67,-8.7 0.42,-12.19c-3.23,-3.49 -8.69,-3.67 -12.18,-0.42c-3.49,3.24 -3.67,8.71 -0.42,12.19c3.24,3.47 8.7,3.66 12.19,0.42z" />
			<path id="Layer" class="shp2" d="M185.58,618.42c-3.23,-3.49 -8.7,-3.68 -12.18,-0.42c-3.49,3.24 -3.67,8.7 -0.42,12.2c2.25,2.4 5.55,3.19 8.54,2.39c1.59,-1.09 3.17,-2.18 4.75,-3.25c2.35,-3.28 2.16,-7.85 -0.69,-10.92z" />
			<path id="Layer" class="shp2" d="M189.67,564.56c3.23,3.46 8.69,3.66 12.18,0.42c3.46,-3.25 3.67,-8.69 0.42,-12.19c-3.24,-3.5 -8.71,-3.68 -12.18,-0.42c-3.48,3.23 -3.67,8.71 -0.41,12.19z" />
			<path id="Layer" class="shp2" d="M201.85,539.43c3.46,-3.26 3.67,-8.7 0.42,-12.19c-3.24,-3.49 -8.71,-3.67 -12.18,-0.42c-3.48,3.24 -3.67,8.71 -0.42,12.19c3.24,3.46 8.7,3.66 12.18,0.42z" />
			<path id="Layer" class="shp2" d="M192.76,501.06c-3.48,3.24 -3.67,8.71 -0.42,12.19c3.24,3.45 8.7,3.66 12.18,0.42c3.47,-3.27 3.68,-8.7 0.42,-12.19c-3.24,-3.49 -8.7,-3.68 -12.18,-0.42z" />
			<path id="Layer" class="shp2" d="M393.01,535.56c1.67,-1.54 1.75,-4.13 0.2,-5.8c-1.55,-1.66 -4.14,-1.74 -5.82,-0.21c-1.63,1.55 -1.74,4.14 -0.2,5.8c1.57,1.65 4.15,1.76 5.81,0.2z" />
			<path id="Layer" class="shp2" d="M376.88,530.89c1.86,-1.72 1.95,-4.61 0.23,-6.47c-1.74,-1.85 -4.63,-1.95 -6.49,-0.23c-1.82,1.73 -1.94,4.62 -0.22,6.48c1.74,1.85 4.62,1.96 6.47,0.22z" />
			<path id="Layer" class="shp2" d="M361.85,527.14c2.14,-1.96 2.26,-5.27 0.27,-7.4c-1.98,-2.14 -5.3,-2.25 -7.44,-0.27c-2.1,1.98 -2.22,5.3 -0.25,7.44c1.98,2.11 5.3,2.24 7.41,0.23z" />
			<path id="Layer" class="shp2" d="M126.72,505.45c-1.99,-2.14 -5.31,-2.25 -7.44,-0.26c-2.09,1.96 -2.22,5.28 -0.26,7.41c2,2.12 5.31,2.26 7.44,0.25c2.13,-1.97 2.24,-5.28 0.26,-7.41z" />
			<path id="Layer" class="shp2" d="M102.64,509.34c-1.76,-1.87 -4.66,-1.97 -6.53,-0.24c-1.84,1.73 -1.95,4.63 -0.23,6.51c1.75,1.86 4.66,1.99 6.53,0.22c1.86,-1.71 1.97,-4.62 0.23,-6.49z" />
			<path id="Layer" class="shp2" d="M94.47,527.51c-1.84,1.72 -1.96,4.65 -0.23,6.51c1.75,1.86 4.66,1.98 6.53,0.22c1.86,-1.72 1.97,-4.63 0.23,-6.51c-1.74,-1.86 -4.66,-1.96 -6.53,-0.23z" />
			<path id="Layer" class="shp2" d="M116.91,527.32c-2.08,1.96 -2.22,5.28 -0.25,7.41c1.99,2.11 5.31,2.25 7.44,0.25c2.12,-1.97 2.24,-5.29 0.26,-7.41c-1.99,-2.14 -5.32,-2.25 -7.45,-0.26z" />
			<path id="Layer" class="shp2" d="M133.51,628.49c-1.99,-2.14 -5.32,-2.25 -7.45,-0.27c-2.09,1.98 -2.22,5.3 -0.25,7.43c1.99,2.12 5.3,2.25 7.43,0.25c2.12,-1.98 2.24,-5.29 0.26,-7.41z" />
			<path id="Layer" class="shp2" d="M141.12,655.4c-1.98,-2.14 -5.3,-2.25 -7.44,-0.27c-2.09,1.98 -2.22,5.3 -0.26,7.43c1.17,1.24 2.77,1.71 4.33,1.57c1.45,-1.09 2.92,-2.18 4.39,-3.28c0.69,-1.8 0.4,-3.92 -1.02,-5.44z" />
			<path id="Layer" class="shp2" d="M137,650.08c2.14,-1.97 2.24,-5.28 0.26,-7.41c-1.99,-2.14 -5.3,-2.25 -7.44,-0.27c-2.09,1.98 -2.22,5.3 -0.26,7.43c2,2.11 5.31,2.24 7.44,0.25z" />
			<path id="Layer" class="shp2" d="M338.15,515.29c-2.5,2.36 -2.64,6.31 -0.31,8.86c2.37,2.53 6.34,2.69 8.87,0.29c2.54,-2.34 2.68,-6.3 0.32,-8.85c-2.38,-2.54 -6.33,-2.67 -8.89,-0.3z" />
			<path id="Layer" class="shp2" d="M320.95,511.25c-2.7,2.56 -2.86,6.84 -0.33,9.61c2.58,2.73 6.86,2.9 9.62,0.32c2.75,-2.53 2.89,-6.83 0.32,-9.57c-2.56,-2.76 -6.86,-2.9 -9.61,-0.36z" />
			<path id="Layer" class="shp2" d="M152.15,502.12c-2.55,-2.76 -6.87,-2.91 -9.62,-0.36c-2.7,2.57 -2.87,6.86 -0.33,9.61c2.57,2.74 6.86,2.9 9.62,0.31c2.75,-2.53 2.89,-6.83 0.33,-9.57z" />
			<path id="Layer" class="shp2" d="M140.06,528.13c-2.71,2.56 -2.87,6.84 -0.33,9.61c2.58,2.74 6.85,2.91 9.61,0.32c2.75,-2.54 2.89,-6.82 0.33,-9.58c-2.56,-2.75 -6.85,-2.9 -9.62,-0.35z" />
			<path id="Layer" class="shp2" d="M152.05,606.59c2.76,-2.53 2.91,-6.83 0.34,-9.57c-2.57,-2.76 -6.87,-2.91 -9.63,-0.35c-2.71,2.55 -2.86,6.85 -0.33,9.61c2.58,2.74 6.87,2.9 9.61,0.32z" />
			<path id="Layer" class="shp2" d="M156.23,626.74c2.76,-2.54 2.89,-6.84 0.34,-9.58c-2.58,-2.76 -6.87,-2.89 -9.63,-0.35c-2.71,2.55 -2.86,6.84 -0.33,9.6c2.58,2.74 6.87,2.91 9.62,0.33z" />
			<path id="Layer" class="shp2" d="M161.99,636.97c-2.58,-2.76 -6.86,-2.91 -9.63,-0.36c-2.7,2.56 -2.87,6.84 -0.33,9.6c2.22,2.35 5.69,2.8 8.37,1.24c0.29,-0.21 0.58,-0.42 0.86,-0.62c0.13,-0.1 0.26,-0.18 0.38,-0.29c2.74,-2.55 2.89,-6.84 0.34,-9.57z" />
			<path id="Layer" class="shp2" d="M310.1,519.45c3.36,-3.11 3.54,-8.36 0.41,-11.7c-3.13,-3.37 -8.39,-3.56 -11.77,-0.43c-3.31,3.13 -3.5,8.37 -0.4,11.74c3.15,3.35 8.39,3.54 11.76,0.39z" />
			<path id="Layer" class="shp2" d="M294.66,541.79c3.15,3.35 8.39,3.56 11.75,0.4c3.36,-3.11 3.54,-8.37 0.42,-11.71c-3.14,-3.36 -8.39,-3.55 -11.77,-0.44c-3.32,3.14 -3.5,8.38 -0.4,11.75z" />
			<path id="Layer" class="shp2" d="M294.07,567.58c3.14,3.35 8.38,3.54 11.74,0.4c3.37,-3.11 3.54,-8.37 0.42,-11.71c-3.15,-3.38 -8.39,-3.56 -11.78,-0.44c-3.31,3.14 -3.5,8.38 -0.39,11.75z" />
			<path id="Layer" class="shp2" d="M316.4,540.47c2.58,2.74 6.87,2.9 9.61,0.32c2.76,-2.53 2.89,-6.83 0.35,-9.58c-2.58,-2.75 -6.87,-2.9 -9.62,-0.35c-2.72,2.56 -2.87,6.84 -0.33,9.61z" />
			<path id="Layer" class="shp2" d="M315.49,562.53c2.57,2.75 6.85,2.91 9.61,0.33c2.75,-2.54 2.89,-6.83 0.33,-9.57c-2.57,-2.76 -6.85,-2.91 -9.62,-0.35c-2.7,2.56 -2.86,6.85 -0.32,9.6z" />
			<path id="Layer" class="shp2" d="M334,540.79c2.38,2.53 6.33,2.69 8.87,0.3c2.54,-2.34 2.68,-6.3 0.31,-8.85c-2.37,-2.53 -6.33,-2.66 -8.88,-0.3c-2.5,2.35 -2.64,6.32 -0.3,8.85z" />
			<path id="Layer" class="shp2" d="M333.22,549.63c-2.5,2.36 -2.64,6.32 -0.3,8.86c2.37,2.53 6.34,2.69 8.87,0.3c2.53,-2.34 2.68,-6.31 0.31,-8.86c-2.37,-2.52 -6.34,-2.66 -8.89,-0.3z" />
			<path id="Layer" class="shp2" d="M351.06,541.24c2,2.12 5.31,2.25 7.44,0.24c2.12,-1.96 2.24,-5.27 0.26,-7.4c-1.99,-2.14 -5.3,-2.25 -7.45,-0.26c-2.09,1.97 -2.21,5.28 -0.25,7.41z" />
			<path id="Layer" class="shp2" d="M349.81,555.68c2,2.12 5.32,2.25 7.44,0.25c2.12,-1.96 2.24,-5.29 0.26,-7.4c-1.98,-2.14 -5.3,-2.26 -7.43,-0.26c-2.09,1.97 -2.23,5.28 -0.26,7.41z" />
			<path id="Layer" class="shp2" d="M366.35,553.26c1.74,1.86 4.64,1.95 6.48,0.22c1.85,-1.72 1.96,-4.6 0.24,-6.47c-1.74,-1.85 -4.64,-1.95 -6.49,-0.24c-1.83,1.73 -1.94,4.64 -0.23,6.49z" />
			<path id="Layer" class="shp2" d="M367.67,541.83c1.74,1.85 4.63,1.95 6.48,0.22c1.86,-1.72 1.97,-4.62 0.24,-6.47c-1.74,-1.86 -4.63,-1.95 -6.5,-0.24c-1.82,1.74 -1.93,4.64 -0.22,6.49z" />
			<path id="Layer" class="shp2" d="M383.92,551.42c1.56,1.65 4.15,1.76 5.82,0.19c1.66,-1.51 1.75,-4.13 0.2,-5.79c-1.55,-1.66 -4.14,-1.74 -5.8,-0.21c-1.64,1.55 -1.75,4.14 -0.21,5.81z" />
			<path id="Layer" class="shp2" d="M408.37,540.43c1.41,-1.31 1.49,-3.52 0.17,-4.92c-1.31,-1.4 -3.52,-1.49 -4.92,-0.17c-1.4,1.3 -1.49,3.5 -0.17,4.91c1.33,1.42 3.54,1.49 4.93,0.18z" />
			<path id="Layer" class="shp2" d="M74.33,526.84c-1.39,1.3 -1.49,3.5 -0.17,4.91c1.33,1.42 3.54,1.5 4.93,0.18c1.4,-1.31 1.49,-3.51 0.18,-4.92c-1.32,-1.4 -3.53,-1.49 -4.94,-0.17z" />
			<path id="Layer" class="shp2" d="M110.42,658.89c-1.41,1.3 -1.5,3.5 -0.19,4.91c1.33,1.41 3.54,1.5 4.94,0.18c1.4,-1.31 1.47,-3.52 0.17,-4.92c-1.31,-1.4 -3.53,-1.49 -4.92,-0.17z" />
			<path id="Layer" class="shp2" d="M120.57,673.9c-1.32,-1.4 -3.52,-1.49 -4.92,-0.16c-1.41,1.3 -1.49,3.5 -0.17,4.9c0.53,0.57 1.21,0.86 1.92,1c1.34,-1.04 2.71,-2.1 4.09,-3.16c0.05,-0.92 -0.23,-1.86 -0.92,-2.58z" />
			<path id="Layer" class="shp2" d="M79.74,514.82c-1.32,-1.4 -3.52,-1.5 -4.94,-0.16c-1.39,1.3 -1.48,3.5 -0.17,4.9c1.33,1.42 3.53,1.49 4.93,0.17c1.42,-1.3 1.49,-3.52 0.18,-4.92z" />
			<path id="Layer" class="shp2" d="M401.23,550.37c1.33,1.42 3.54,1.5 4.93,0.18c1.41,-1.32 1.49,-3.52 0.17,-4.92c-1.31,-1.4 -3.52,-1.5 -4.92,-0.16c-1.4,1.3 -1.49,3.5 -0.19,4.9z" />
			<path id="Layer" class="shp2" d="M434.11,549.29c0.59,-0.54 0.61,-1.41 0.08,-2c-0.52,-0.56 -1.42,-0.59 -2,-0.06c-0.59,0.52 -0.6,1.43 -0.08,1.99c0.54,0.58 1.42,0.63 2,0.06z" />
			<path id="Layer" class="shp2" d="M37.37,528.18c0.59,-0.54 0.61,-1.42 0.08,-2.01c-0.52,-0.55 -1.42,-0.59 -2.01,-0.06c-0.57,0.55 -0.6,1.43 -0.06,2.01c0.54,0.56 1.43,0.61 1.99,0.06z" />
			<path id="Layer" class="shp2" d="M86.68,703.92c-0.21,0.06 -0.43,0.06 -0.6,0.23c-0.13,0.11 -0.12,0.27 -0.19,0.42c0.25,-0.21 0.53,-0.43 0.79,-0.64z" />
			<path id="Layer" class="shp2" d="M419.31,540.98c-0.94,0.86 -0.99,2.33 -0.14,3.27c0.9,0.94 2.37,1 3.3,0.13c0.95,-0.88 0.99,-2.34 0.11,-3.28c-0.88,-0.94 -2.34,-1.01 -3.27,-0.12z" />
			<path id="Layer" class="shp2" d="M53.68,527.17c-0.95,0.88 -0.99,2.35 -0.14,3.29c0.88,0.94 2.36,1 3.3,0.1c0.95,-0.87 0.99,-2.32 0.09,-3.26c-0.86,-0.94 -2.34,-1.01 -3.25,-0.13z" />
			<path id="Layer" class="shp2" d="M57.44,519.86c-0.88,-0.95 -2.34,-1 -3.27,-0.14c-0.96,0.88 -0.99,2.35 -0.14,3.29c0.9,0.94 2.36,1 3.3,0.11c0.94,-0.86 1,-2.32 0.1,-3.27z" />
			<path id="Layer" class="shp2" d="M96.86,682.76c-0.97,0.88 -1,2.34 -0.15,3.28c0.88,0.94 2.36,1 3.3,0.12c0.94,-0.88 0.99,-2.32 0.1,-3.28c-0.87,-0.94 -2.33,-0.99 -3.25,-0.12z" />
			<path id="Layer" class="shp2" d="M103.03,690.49c-0.88,-0.96 -2.34,-1.01 -3.27,-0.13c-0.94,0.86 -0.98,2.28 -0.17,3.23c1.17,-0.93 2.36,-1.87 3.6,-2.85c-0.06,-0.08 -0.09,-0.18 -0.16,-0.25z" />
			<path id="Layer" class="shp2" d="M420.91,550.62c0.95,-0.88 0.99,-2.32 0.1,-3.26c-0.86,-0.96 -2.35,-1.01 -3.27,-0.14c-0.96,0.87 -1,2.34 -0.13,3.29c0.89,0.94 2.37,0.99 3.29,0.11z" />
		</g>
		<g id="Layer">
			<path id="Layer" class="shp3" d="M327.99,443.74c3.52,-0.82 5.71,-4.33 4.9,-7.84c-0.82,-3.52 -4.33,-5.71 -7.85,-4.9c-3.52,0.81 -5.72,4.32 -4.9,7.86c0.81,3.5 4.33,5.7 7.85,4.89z" />
			<path id="Layer" class="shp3" d="M258.02,401.55c3.52,-0.82 5.71,-4.32 4.9,-7.84c-0.81,-3.52 -4.32,-5.73 -7.85,-4.91c-3.51,0.82 -5.71,4.32 -4.89,7.86c0.81,3.52 4.33,5.71 7.84,4.89z" />
			<path id="Layer" class="shp3" d="M247.85,415.74c3.52,-0.82 5.71,-4.32 4.9,-7.84c-0.81,-3.52 -4.33,-5.73 -7.84,-4.9c-3.52,0.81 -5.72,4.32 -4.9,7.86c0.82,3.5 4.33,5.7 7.85,4.88z" />
			<path id="Layer" class="shp3" d="M233.43,440.89c3.52,-0.82 5.71,-4.32 4.9,-7.84c-0.81,-3.51 -4.33,-5.71 -7.85,-4.9c-3.5,0.8 -5.71,4.32 -4.89,7.85c0.8,3.5 4.33,5.69 7.85,4.89z" />
			<path id="Layer" class="shp3" d="M230.08,451.39c-0.81,-3.51 -4.31,-5.71 -7.84,-4.9c-3.51,0.81 -5.71,4.31 -4.89,7.85c0.8,3.52 4.33,5.69 7.84,4.9c3.51,-0.82 5.71,-4.31 4.89,-7.85z" />
			<path id="Layer" class="shp3" d="M220.9,475.56c3.52,-0.82 5.71,-4.31 4.9,-7.84c-0.81,-3.5 -4.33,-5.71 -7.84,-4.89c-3.52,0.8 -5.71,4.31 -4.9,7.84c0.81,3.51 4.32,5.71 7.84,4.89z" />
			<path id="Layer" class="shp3" d="M315.48,459.02c3.5,-0.82 5.7,-4.33 4.89,-7.85c-0.8,-3.51 -4.33,-5.71 -7.84,-4.9c-3.53,0.81 -5.7,4.32 -4.9,7.85c0.81,3.51 4.33,5.69 7.85,4.89z" />
			<path id="Layer" class="shp3" d="M305.12,477.59c3.52,-0.82 5.71,-4.33 4.9,-7.84c-0.81,-3.52 -4.34,-5.72 -7.84,-4.9c-3.52,0.82 -5.72,4.31 -4.9,7.86c0.8,3.5 4.33,5.69 7.84,4.89z" />
			<path id="Layer" class="shp3" d="M310.84,436.37c4.61,-1.08 7.48,-5.66 6.41,-10.27c-1.06,-4.6 -5.66,-7.47 -10.26,-6.39c-4.6,1.04 -7.47,5.65 -6.39,10.26c1.04,4.59 5.65,7.45 10.25,6.4z" />
			<path id="Layer" class="shp3" d="M292.03,424.23c4.64,-1.09 7.52,-5.68 6.46,-10.34c-1.07,-4.63 -5.7,-7.52 -10.34,-6.44c-4.64,1.07 -7.52,5.69 -6.45,10.34c1.07,4.63 5.7,7.51 10.33,6.44z" />
			<path id="Layer" class="shp3" d="M273.87,411.48c4.05,-0.96 6.58,-4.98 5.65,-9.03c-0.94,-4.06 -4.98,-6.59 -9.04,-5.64c-4.06,0.93 -6.58,4.97 -5.63,9.03c0.93,4.03 4.98,6.57 9.02,5.64z" />
			<path id="Layer" class="shp3" d="M262.49,426.47c4.04,-0.94 6.56,-4.97 5.63,-9.01c-0.93,-4.06 -4.98,-6.59 -9.04,-5.64c-4.04,0.91 -6.57,4.98 -5.63,9.04c0.93,4.02 4.97,6.54 9.03,5.61z" />
			<path id="Layer" class="shp3" d="M253.81,442.25c4.04,-0.96 6.57,-4.98 5.64,-9.04c-0.93,-4.05 -4.98,-6.59 -9.02,-5.63c-4.06,0.92 -6.59,4.97 -5.65,9.02c0.94,4.05 4.98,6.57 9.03,5.65z" />
			<path id="Layer" class="shp3" d="M251.02,449.63c-0.93,-4.05 -4.97,-6.57 -9.02,-5.63c-4.06,0.92 -6.59,4.97 -5.65,9.03c0.94,4.04 4.98,6.56 9.03,5.63c4.04,-0.95 6.57,-4.98 5.63,-9.03z" />
			<path id="Layer" class="shp3" d="M239.75,475.12c4.05,-0.94 6.57,-4.97 5.63,-9.02c-0.92,-4.04 -4.97,-6.58 -9.02,-5.63c-4.06,0.92 -6.59,4.97 -5.64,9.03c0.92,4.04 4.98,6.57 9.02,5.63z" />
			<path id="Layer" class="shp3" d="M280.59,439.42c4.64,-1.09 7.53,-5.69 6.46,-10.34c-1.06,-4.63 -5.71,-7.52 -10.33,-6.44c-4.64,1.06 -7.53,5.7 -6.46,10.34c1.08,4.62 5.69,7.51 10.33,6.45z" />
			<path id="Layer" class="shp3" d="M270.71,456.11c4.64,-1.09 7.53,-5.68 6.46,-10.34c-1.07,-4.64 -5.7,-7.52 -10.34,-6.45c-4.64,1.07 -7.52,5.68 -6.45,10.34c1.07,4.62 5.7,7.51 10.33,6.44z" />
			<path id="Layer" class="shp3" d="M263.24,474.44c4.64,-1.08 7.53,-5.69 6.46,-10.32c-1.06,-4.63 -5.7,-7.53 -10.34,-6.45c-4.63,1.04 -7.52,5.7 -6.44,10.34c1.06,4.62 5.69,7.51 10.32,6.44z" />
			<path id="Layer" class="shp3" d="M297.41,454.04c4.6,-1.09 7.47,-5.66 6.41,-10.26c-1.07,-4.61 -5.66,-7.48 -10.26,-6.41c-4.6,1.04 -7.48,5.64 -6.41,10.26c1.07,4.59 5.66,7.46 10.26,6.41z" />
			<path id="Layer" class="shp3" d="M286.32,475.09c4.6,-1.09 7.47,-5.65 6.41,-10.27c-1.07,-4.59 -5.65,-7.48 -10.26,-6.39c-4.6,1.05 -7.48,5.63 -6.41,10.25c1.07,4.59 5.66,7.47 10.26,6.41z" />
			<path id="Layer" class="shp3" d="M387.67,488.55c-0.36,-1.58 -1.92,-2.53 -3.47,-2.18c-1.55,0.36 -2.53,1.91 -2.18,3.47c0.38,1.57 1.93,2.54 3.48,2.17c1.56,-0.35 2.53,-1.9 2.17,-3.46z" />
			<path id="Layer" class="shp3" d="M377.3,483.47c1.73,-0.4 2.81,-2.12 2.41,-3.87c-0.4,-1.74 -2.14,-2.83 -3.88,-2.44c-1.72,0.42 -2.82,2.14 -2.42,3.88c0.4,1.74 2.13,2.84 3.89,2.43z" />
			<path id="Layer" class="shp3" d="M364.98,473.11c0.47,1.99 2.45,3.24 4.46,2.78c1.99,-0.46 3.23,-2.44 2.78,-4.44c-0.47,-2 -2.45,-3.24 -4.46,-2.78c-1.98,0.46 -3.21,2.46 -2.77,4.45z" />
			<path id="Layer" class="shp3" d="M229.46,378.31c-0.47,-2.01 -2.45,-3.24 -4.46,-2.78c-1.97,0.47 -3.22,2.44 -2.77,4.44c0.47,2.01 2.45,3.25 4.46,2.77c1.99,-0.44 3.22,-2.44 2.77,-4.42z" />
			<path id="Layer" class="shp3" d="M209.46,369.75c-1.74,0.41 -2.83,2.16 -2.44,3.89c0.4,1.76 2.16,2.86 3.91,2.43c1.76,-0.4 2.85,-2.13 2.44,-3.89c-0.41,-1.76 -2.16,-2.85 -3.91,-2.44z" />
			<path id="Layer" class="shp3" d="M201.97,380.41c-1.74,0.42 -2.83,2.16 -2.43,3.91c0.41,1.76 2.14,2.85 3.91,2.44c1.74,-0.4 2.83,-2.13 2.44,-3.88c-0.42,-1.77 -2.17,-2.87 -3.91,-2.47z" />
			<path id="Layer" class="shp3" d="M217.44,395.42c1.99,-0.45 3.23,-2.42 2.77,-4.42c-0.46,-2.01 -2.45,-3.24 -4.46,-2.79c-1.97,0.47 -3.22,2.44 -2.78,4.45c0.47,1.99 2.46,3.24 4.46,2.76z" />
			<path id="Layer" class="shp3" d="M190.21,455.88c-0.47,-1.99 -2.46,-3.24 -4.46,-2.78c-1.98,0.46 -3.22,2.44 -2.77,4.44c0.47,2 2.46,3.24 4.46,2.76c1.99,-0.45 3.24,-2.44 2.78,-4.43z" />
			<path id="Layer" class="shp3" d="M180.92,472.22c-1.98,0.46 -3.22,2.44 -2.78,4.44c0.47,2 2.45,3.24 4.46,2.77c2,-0.45 3.23,-2.43 2.78,-4.43c-0.46,-2.01 -2.46,-3.24 -4.46,-2.78z" />
			<path id="Layer" class="shp3" d="M187.51,465.87c-0.46,-2.01 -2.45,-3.25 -4.46,-2.79c-1.98,0.48 -3.22,2.45 -2.78,4.45c0.48,2 2.46,3.24 4.46,2.76c1.99,-0.44 3.23,-2.42 2.77,-4.42z" />
			<path id="Layer" class="shp3" d="M361.14,468.9c2.38,-0.54 3.86,-2.91 3.31,-5.28c-0.55,-2.4 -2.92,-3.87 -5.3,-3.33c-2.37,0.55 -3.86,2.92 -3.32,5.3c0.56,2.39 2.93,3.87 5.32,3.31z" />
			<path id="Layer" class="shp3" d="M350.04,451.75c-2.55,0.6 -4.16,3.17 -3.59,5.75c0.61,2.58 3.18,4.19 5.78,3.58c2.57,-0.58 4.16,-3.15 3.57,-5.73c-0.59,-2.59 -3.16,-4.2 -5.76,-3.61z" />
			<path id="Layer" class="shp3" d="M246.16,385.24c-0.59,-2.59 -3.17,-4.19 -5.75,-3.6c-2.55,0.6 -4.18,3.16 -3.59,5.74c0.61,2.57 3.17,4.19 5.77,3.59c2.57,-0.58 4.17,-3.15 3.58,-5.74z" />
			<path id="Layer" class="shp3" d="M231.78,406.21c2.57,-0.58 4.17,-3.14 3.58,-5.72c-0.6,-2.6 -3.16,-4.19 -5.75,-3.6c-2.56,0.59 -4.17,3.16 -3.59,5.74c0.61,2.57 3.16,4.19 5.76,3.58z" />
			<path id="Layer" class="shp3" d="M212.85,443.31c-0.61,-2.6 -3.17,-4.2 -5.76,-3.6c-2.55,0.6 -4.17,3.16 -3.59,5.74c0.62,2.57 3.16,4.19 5.76,3.59c2.57,-0.59 4.17,-3.16 3.58,-5.74z" />
			<path id="Layer" class="shp3" d="M208.29,457.08c-0.6,-2.59 -3.17,-4.19 -5.76,-3.61c-2.55,0.61 -4.16,3.17 -3.59,5.76c0.62,2.58 3.16,4.2 5.77,3.59c2.57,-0.59 4.17,-3.16 3.58,-5.74z" />
			<path id="Layer" class="shp3" d="M198.88,467.5c-2.56,0.59 -4.18,3.16 -3.59,5.73c0.61,2.59 3.17,4.2 5.76,3.6c2.57,-0.59 4.17,-3.16 3.58,-5.74c-0.61,-2.6 -3.18,-4.2 -5.75,-3.6z" />
			<path id="Layer" class="shp3" d="M340.52,452.93c3.14,-0.71 5.11,-3.85 4.38,-7.02c-0.73,-3.16 -3.87,-5.11 -7.03,-4.4c-3.12,0.74 -5.09,3.88 -4.39,7.03c0.75,3.16 3.87,5.12 7.04,4.38z" />
			<path id="Layer" class="shp3" d="M330.26,465.52c3.15,-0.71 5.11,-3.85 4.38,-6.99c-0.73,-3.16 -3.87,-5.13 -7.03,-4.42c-3.13,0.74 -5.1,3.88 -4.39,7.04c0.75,3.15 3.87,5.11 7.04,4.37z" />
			<path id="Layer" class="shp3" d="M320.8,481.06c3.15,-0.71 5.11,-3.86 4.4,-7c-0.74,-3.17 -3.88,-5.13 -7.05,-4.42c-3.12,0.75 -5.09,3.88 -4.38,7.04c0.73,3.15 3.87,5.12 7.03,4.38z" />
			<path id="Layer" class="shp3" d="M342.73,471.59c2.57,-0.59 4.18,-3.15 3.58,-5.74c-0.6,-2.59 -3.17,-4.2 -5.76,-3.6c-2.55,0.6 -4.17,3.16 -3.59,5.74c0.61,2.59 3.16,4.2 5.76,3.6z" />
			<path id="Layer" class="shp3" d="M334.39,484.74c2.57,-0.59 4.17,-3.15 3.58,-5.74c-0.61,-2.6 -3.18,-4.19 -5.76,-3.61c-2.56,0.61 -4.18,3.17 -3.59,5.76c0.61,2.58 3.17,4.2 5.77,3.59z" />
			<path id="Layer" class="shp3" d="M352.92,477.71c2.38,-0.54 3.86,-2.91 3.31,-5.28c-0.55,-2.39 -2.94,-3.87 -5.31,-3.33c-2.37,0.56 -3.86,2.92 -3.31,5.3c0.57,2.39 2.93,3.87 5.32,3.31z" />
			<path id="Layer" class="shp3" d="M346.01,488.15c2.37,-0.54 3.87,-2.91 3.31,-5.29c-0.55,-2.39 -2.93,-3.87 -5.31,-3.32c-2.36,0.56 -3.85,2.92 -3.31,5.3c0.56,2.39 2.92,3.87 5.32,3.31z" />
			<path id="Layer" class="shp3" d="M362.31,483.47c2,-0.45 3.24,-2.44 2.78,-4.43c-0.47,-2.01 -2.45,-3.25 -4.46,-2.79c-1.97,0.47 -3.22,2.45 -2.77,4.45c0.47,1.99 2.46,3.24 4.45,2.76z" />
			<path id="Layer" class="shp3" d="M356.47,491.84c2,-0.44 3.23,-2.44 2.78,-4.42c-0.47,-2 -2.44,-3.25 -4.46,-2.79c-1.97,0.46 -3.22,2.45 -2.78,4.44c0.47,2 2.46,3.25 4.46,2.77z" />
			<path id="Layer" class="shp3" d="M366.85,495.84c1.74,-0.38 2.82,-2.11 2.43,-3.86c-0.41,-1.75 -2.14,-2.83 -3.88,-2.42c-1.73,0.4 -2.82,2.12 -2.42,3.86c0.4,1.74 2.13,2.83 3.87,2.42z" />
			<path id="Layer" class="shp3" d="M371.7,489.33c1.73,-0.4 2.81,-2.11 2.41,-3.86c-0.41,-1.76 -2.14,-2.83 -3.89,-2.44c-1.72,0.42 -2.81,2.14 -2.42,3.88c0.42,1.74 2.14,2.83 3.89,2.42z" />
			<path id="Layer" class="shp3" d="M377.84,500.67c1.56,-0.36 2.53,-1.9 2.16,-3.47c-0.37,-1.56 -1.92,-2.52 -3.48,-2.16c-1.54,0.36 -2.52,1.91 -2.18,3.47c0.38,1.56 1.92,2.51 3.49,2.16z" />
			<path id="Layer" class="shp3" d="M392.06,495.63c-1.32,0.3 -2.14,1.62 -1.84,2.94c0.3,1.32 1.63,2.16 2.95,1.85c1.32,-0.31 2.14,-1.62 1.84,-2.94c-0.32,-1.32 -1.63,-2.17 -2.95,-1.84z" />
			<path id="Layer" class="shp3" d="M189.9,372.91c-1.31,0.3 -2.14,1.62 -1.84,2.93c0.31,1.34 1.63,2.17 2.95,1.86c1.32,-0.31 2.14,-1.63 1.84,-2.95c-0.31,-1.32 -1.63,-2.15 -2.96,-1.84z" />
			<path id="Layer" class="shp3" d="M168.32,468.15c-0.31,-1.32 -1.63,-2.16 -2.95,-1.84c-1.32,0.3 -2.14,1.62 -1.84,2.93c0.31,1.33 1.63,2.16 2.95,1.85c1.32,-0.31 2.14,-1.62 1.83,-2.94z" />
			<path id="Layer" class="shp3" d="M163.34,477.22c-1.32,0.29 -2.14,1.61 -1.84,2.93c0.3,1.33 1.62,2.16 2.95,1.84c1.32,-0.31 2.14,-1.62 1.83,-2.94c-0.31,-1.31 -1.62,-2.15 -2.95,-1.84z" />
			<path id="Layer" class="shp3" d="M195.61,370.41c1.32,-0.3 2.14,-1.62 1.84,-2.94c-0.31,-1.32 -1.62,-2.15 -2.95,-1.84c-1.32,0.3 -2.14,1.62 -1.84,2.93c0.31,1.33 1.64,2.15 2.96,1.84z" />
			<path id="Layer" class="shp3" d="M390.15,503.42c0,-1.36 -1.1,-2.46 -2.46,-2.46c-1.36,0 -2.46,1.1 -2.46,2.46c0,1.36 1.1,2.46 2.46,2.46c1.36,0 2.46,-1.1 2.46,-2.46z" />
			<path id="Layer" class="shp3" d="M404.57,514.16c0.12,0.54 0.65,0.87 1.19,0.73c0.55,-0.13 0.88,-0.66 0.76,-1.19c-0.14,-0.52 -0.67,-0.87 -1.21,-0.74c-0.54,0.12 -0.86,0.66 -0.75,1.2z" />
			<path id="Layer" class="shp3" d="M167.63,359.72c0,-0.55 -0.45,-1 -1,-1c-0.55,0 -1,0.45 -1,1c0,0.55 0.45,1 1,1c0.55,0 1,-0.45 1,-1z" />
			<path id="Layer" class="shp3" d="M135.01,487.32c0.54,-0.13 0.87,-0.66 0.76,-1.2c-0.13,-0.54 -0.67,-0.86 -1.19,-0.76c-0.55,0.13 -0.88,0.67 -0.76,1.21c0.12,0.54 0.65,0.87 1.19,0.74z" />
			<path id="Layer" class="shp3" d="M400.4,507.79c0.88,-0.21 1.42,-1.09 1.22,-1.97c-0.21,-0.88 -1.09,-1.43 -1.96,-1.23c-0.88,0.2 -1.43,1.08 -1.24,1.95c0.22,0.88 1.09,1.44 1.98,1.25z" />
			<path id="Layer" class="shp3" d="M177.16,365.83c-0.88,0.2 -1.42,1.08 -1.23,1.96c0.21,0.88 1.08,1.44 1.98,1.24c0.88,-0.2 1.42,-1.08 1.21,-1.97c-0.2,-0.9 -1.07,-1.44 -1.95,-1.23z" />
			<path id="Layer" class="shp3" d="M180.83,364.65c0.88,-0.2 1.43,-1.08 1.2,-1.97c-0.2,-0.89 -1.06,-1.43 -1.94,-1.23c-0.9,0.2 -1.44,1.09 -1.24,1.96c0.21,0.89 1.09,1.44 1.98,1.23z" />
			<path id="Layer" class="shp3" d="M150.63,477.33c-0.2,-0.89 -1.07,-1.44 -1.94,-1.22c-0.9,0.2 -1.44,1.08 -1.24,1.95c0.21,0.89 1.09,1.44 1.97,1.23c0.88,-0.18 1.42,-1.07 1.21,-1.96z" />
			<path id="Layer" class="shp3" d="M147.77,481.78c-0.88,0.2 -1.43,1.08 -1.24,1.95c0.21,0.89 1.09,1.45 1.97,1.24c0.88,-0.19 1.42,-1.08 1.22,-1.96c-0.21,-0.89 -1.09,-1.44 -1.96,-1.23z" />
			<path id="Layer" class="shp3" d="M396.5,507.87c-0.9,0.19 -1.44,1.09 -1.23,1.97c0.2,0.88 1.09,1.43 1.96,1.23c0.9,-0.2 1.43,-1.07 1.22,-1.96c-0.2,-0.89 -1.07,-1.46 -1.95,-1.24z" />
		</g>
		<path id="Layer" class="shp4" d="M405.45,371.89c-0.06,-0.01 -2.26,6.46 -2.94,8.24l-8.47,1.76c-0.13,0.04 -0.21,0.08 -0.21,0.18c-0.01,0.05 0,0.12 0.06,0.17c0,0 5.25,4.01 6.71,5.24c-0.15,1.92 -1.01,8.51 -1.01,8.51c0,0.08 0.05,0.19 0.1,0.19c0.05,0.04 0.15,0.04 0.19,0l7.33,-4.93c1.74,0.78 8.08,3.74 8.08,3.74c0.02,0.04 0.13,0.04 0.19,0c0.1,-0.08 0.09,-0.14 0.08,-0.22l-2.97,-8.23l5.36,-6.12c0.02,0 0.09,-0.06 0.08,-0.1c0.02,-0.06 -0.02,-0.06 -0.02,-0.06c-0.04,-0.1 -0.12,-0.18 -0.21,-0.19c0,0 -7.1,-0.46 -8.21,-0.54c-0.76,-1.67 -3.8,-7.71 -3.8,-7.71c-0.06,-0.01 -0.15,-0.1 -0.2,-0.1c-0.07,0 -0.1,0.1 -0.13,0.16z" />
		<path id="Layer" class="shp4" d="M370.89,319.35c-0.06,-0.01 -2.26,6.47 -2.96,8.25l-8.46,1.75c-0.15,0.04 -0.2,0.08 -0.2,0.19c-0.02,0.04 0,0.11 0.04,0.17c0,0 5.24,4 6.72,5.23c-0.15,1.9 -1.03,8.5 -1.03,8.5c0,0.09 0.06,0.21 0.13,0.19c0.04,0.04 0.13,0.04 0.19,0l7.33,-4.93c1.73,0.79 8.07,3.75 8.07,3.75c0.02,0.04 0.13,0.04 0.19,0c0.09,-0.07 0.09,-0.15 0.09,-0.21l-2.97,-8.23l5.36,-6.13c0.02,0 0.08,-0.06 0.07,-0.1c0.02,-0.05 -0.03,-0.05 -0.03,-0.05c-0.04,-0.08 -0.12,-0.2 -0.2,-0.2c0,0 -7.08,-0.46 -8.19,-0.53c-0.76,-1.67 -3.81,-7.7 -3.81,-7.7c-0.04,-0.02 -0.15,-0.11 -0.19,-0.1c-0.06,-0.01 -0.09,0.08 -0.13,0.15z" />
		<path id="Layer" class="shp4" d="M335.79,266.6c-0.06,-0.01 -2.26,6.46 -2.95,8.25l-8.47,1.75c-0.15,0.04 -0.2,0.08 -0.2,0.19c-0.02,0.04 0,0.11 0.05,0.17c0,0 5.27,3.99 6.72,5.24c-0.15,1.9 -1.03,8.5 -1.03,8.5c0,0.08 0.06,0.2 0.13,0.2c0.05,0.03 0.13,0.04 0.18,0l7.34,-4.93c1.72,0.79 8.05,3.73 8.05,3.73c0.04,0.04 0.15,0.04 0.19,0.01c0.11,-0.08 0.1,-0.15 0.08,-0.22l-2.95,-8.23l5.34,-6.13c0.02,0.01 0.1,-0.05 0.08,-0.09c0.02,-0.06 -0.03,-0.05 -0.03,-0.05c-0.03,-0.09 -0.1,-0.19 -0.21,-0.2c0,0 -7.07,-0.46 -8.19,-0.53c-0.77,-1.68 -3.8,-7.71 -3.8,-7.71c-0.06,-0.02 -0.16,-0.1 -0.2,-0.09c-0.09,-0.01 -0.1,0.08 -0.13,0.15z" />
		<path id="Layer" class="shp4" d="M307.13,209.12c-0.06,-0.01 -2.26,6.46 -2.96,8.25l-8.46,1.74c-0.15,0.04 -0.2,0.08 -0.2,0.2c-0.02,0.03 0,0.11 0.04,0.17c0,0 5.27,4 6.72,5.23c-0.15,1.91 -1.01,8.51 -1.01,8.51c-0.01,0.09 0.04,0.2 0.1,0.19c0.05,0.05 0.15,0.05 0.19,0l7.33,-4.92c1.73,0.78 8.05,3.73 8.05,3.73c0.04,0.05 0.15,0.05 0.2,0c0.1,-0.07 0.09,-0.13 0.09,-0.19l-2.97,-8.24l5.36,-6.13c0,0 0.1,-0.06 0.07,-0.09c0.02,-0.06 -0.03,-0.06 -0.03,-0.06c-0.03,-0.09 -0.11,-0.19 -0.2,-0.2c0,0 -7.08,-0.45 -8.19,-0.53c-0.77,-1.67 -3.81,-7.7 -3.81,-7.7c-0.05,-0.01 -0.15,-0.1 -0.19,-0.1c-0.07,0 -0.1,0.09 -0.13,0.15z" />
		<path id="Layer" class="shp4" d="M283.7,149.17c-0.06,-0.01 -2.27,6.47 -2.94,8.26l-8.49,1.74c-0.12,0.04 -0.2,0.08 -0.19,0.19c-0.02,0.05 0,0.12 0.05,0.17c0,0 5.25,4 6.71,5.23c-0.15,1.91 -1.03,8.51 -1.03,8.51c0,0.08 0.06,0.2 0.13,0.2c0.05,0.04 0.15,0.04 0.19,-0.01l7.33,-4.93c1.73,0.79 8.06,3.75 8.06,3.75c0.03,0.04 0.14,0.04 0.19,0c0.09,-0.07 0.09,-0.15 0.09,-0.2l-2.97,-8.24l5.35,-6.13c0.02,0 0.09,-0.06 0.07,-0.09c0.03,-0.06 -0.02,-0.06 -0.02,-0.06c-0.03,-0.08 -0.1,-0.18 -0.19,-0.18c0,0 -7.09,-0.47 -8.2,-0.53c-0.77,-1.68 -3.79,-7.71 -3.79,-7.71c-0.05,-0.02 -0.15,-0.11 -0.2,-0.1c-0.07,0 -0.08,0.09 -0.13,0.15z" />
		<path id="Layer" class="shp4" d="M267.76,88.67c-0.06,-0.01 -2.27,6.47 -2.96,8.25l-8.47,1.75c-0.14,0.04 -0.19,0.08 -0.19,0.2c-0.02,0.04 0,0.11 0.03,0.17c0,0 5.27,3.98 6.74,5.23c-0.15,1.92 -1.03,8.51 -1.03,8.51c0,0.09 0.05,0.2 0.13,0.19c0.04,0.05 0.14,0.05 0.17,0l7.35,-4.92c1.72,0.78 8.06,3.73 8.06,3.73c0.02,0.03 0.14,0.04 0.19,0c0.08,-0.07 0.08,-0.15 0.08,-0.21l-2.96,-8.24l5.34,-6.11c0.03,0 0.09,-0.07 0.07,-0.09c0.03,-0.06 -0.02,-0.06 -0.02,-0.06c-0.04,-0.09 -0.1,-0.19 -0.21,-0.2c0,0 -7.09,-0.46 -8.18,-0.53c-0.76,-1.68 -3.81,-7.7 -3.81,-7.7c-0.05,-0.02 -0.14,-0.12 -0.19,-0.1c-0.08,-0.02 -0.1,0.07 -0.14,0.14z" />
		<path id="Layer" class="shp4" d="M248.09,28.82c-0.06,-0.01 -2.26,6.46 -2.95,8.25l-8.48,1.75c-0.14,0.04 -0.2,0.08 -0.2,0.18c-0.02,0.05 0,0.12 0.05,0.18c0,0 5.25,3.98 6.71,5.23c-0.15,1.91 -1.01,8.51 -1.01,8.51c-0.02,0.08 0.04,0.19 0.11,0.19c0.04,0.04 0.13,0.04 0.18,0l7.33,-4.92c1.73,0.78 8.06,3.73 8.06,3.73c0.02,0.04 0.15,0.04 0.18,0c0.1,-0.08 0.1,-0.15 0.1,-0.21l-2.97,-8.23l5.36,-6.13c0.02,0 0.1,-0.06 0.08,-0.09c0.02,-0.08 -0.04,-0.06 -0.04,-0.06c-0.03,-0.08 -0.11,-0.19 -0.19,-0.19c0,0 -7.09,-0.46 -8.19,-0.54c-0.77,-1.67 -3.81,-7.69 -3.81,-7.69c-0.06,-0.02 -0.15,-0.12 -0.2,-0.11c-0.06,-0.01 -0.08,0.09 -0.13,0.15z" />
	</g>
	<g id="Layer">
		<g id="Folder 17">
			<path id="Layer" class="shp0" d="M16.33,1035.53v52.36c0,1.28 0.73,1.59 1.59,1.59c1.17,0 3.18,-0.31 4.56,-0.86c-0.22,-8.05 -0.32,-16.52 -0.32,-29.34h20.88c3.18,0 5.84,-0.76 5.73,-4.47h-26.61v-27.66h19.93c3.81,0 5.84,-0.22 6.68,-1.07c0.85,-0.95 1.27,-2.22 1.48,-3.38c-3.82,0 -21.21,0 -28.83,0c-2.23,0.32 -3.71,0.84 -5.41,1.37c0.21,1.49 0.32,5.2 0.32,11.46z" />
			<path id="Layer" class="shp0" d="M60.97,1037.54v48.98l1.38,1.81c2.75,0.74 10.7,1.16 18.97,1.16c6.78,0 10.07,-0.22 11.34,-0.42c2.23,-0.44 3.6,-2.55 4.24,-4.35l-0.22,-0.22c-3.17,0.43 -9.21,0.55 -14.41,0.55c-5.94,0 -13.47,-0.21 -15.48,-0.97v-27.02h19.93c3.39,0 5.3,-0.21 6.15,-4.46h-26.08v-25.43h17.81c4.56,0 5.83,-0.11 6.99,-0.75c1.17,-0.96 1.92,-2.75 1.92,-3.7c-7.32,0 -19.4,0 -27.99,0c-1.7,0.32 -3.5,0.95 -4.77,1.48c0.22,3.61 0.22,8.38 0.22,13.36z" />
			<path id="Layer" class="shp0" d="M106.15,1036.37c0,-7.2 0,-9.33 -0.21,-12.72c1.06,-0.52 11.03,-1.59 16.64,-1.59c34.03,0 39.33,19.83 39.33,32.66c0,22.79 -16.33,35.19 -38.15,35.19c-7.42,0 -12.09,-0.95 -17.6,-2.44v-51.1zM111.98,1084.49c2.66,0.85 8.06,1.29 12.3,1.29c16.75,0 31.16,-8.6 31.16,-30.63c0,-16.44 -9.75,-28.74 -33.28,-28.74c-3.92,0 -7.2,0.21 -10.17,0.75v57.33z" />
			<path id="Layer" class="shp0" d="M174.14,1086.52l1.38,1.81c2.75,0.74 10.71,1.16 18.97,1.16c6.78,0 10.07,-0.22 11.34,-0.42c2.23,-0.44 3.61,-2.55 4.24,-4.35l-0.22,-0.22c-3.17,0.43 -9.22,0.55 -14.41,0.55c-5.94,0 -13.46,-0.21 -15.48,-0.97v-27.02l19.93,0c3.39,0 5.29,-0.21 6.15,-4.46l-26.08,0v-25.43h17.81c4.56,0 5.84,-0.11 7,-0.75c1.17,-0.96 1.91,-2.75 1.91,-3.7c-7.32,0 -19.4,0 -27.99,0c-1.7,0.32 -3.5,0.95 -4.77,1.48c0.22,3.61 0.22,8.38 0.22,13.36z" />
			<path id="Layer" class="shp0" d="M225.14,1086.62c0,1.8 -0.42,2.34 -1.59,2.55c-2.75,0.31 -4.02,0.31 -4.55,0.31c0.21,-4.25 0.32,-10.49 0.32,-19.28v-35.41c0,-5.21 0,-7.74 -0.22,-11.35c3.18,-0.63 9.11,-1.38 13.79,-1.38c11.76,0 21.62,4.03 21.62,18.45c0,11.03 -9.22,16.33 -13.78,18.02c2.75,1.8 6.25,5.72 10.91,13.15c5.52,8.69 10.6,15.15 12.73,16.75l-0.1,0.53c-0.84,0.52 -2.13,0.74 -4.03,0.74c-2.33,0 -4.66,-1.81 -7.42,-6.04c-4.35,-6.67 -5.41,-8.48 -9.01,-13.67c-5.09,-7.42 -7,-9.97 -14.84,-9.97c-1.27,0 -1.9,0 -3.82,0zM237.86,1055.55c5.62,-1.79 10.39,-6.45 10.39,-14.73c0,-11.25 -8.06,-14.52 -15.37,-14.52c-2.87,0 -5.83,0.1 -7.75,0.52v29.15c4.77,0.21 11.24,0.11 12.72,-0.43z" />
			<path id="Layer" class="shp0" d="M286.01,1065.95c-4.77,10.71 -8.26,18.34 -10.39,22.47c-0.32,0.63 -0.95,1.06 -1.8,1.06c-0.95,0 -2.65,-0.42 -3.71,-1.16l0.11,-0.64c6.57,-13.04 25.23,-54.07 28.2,-60.85l-1.59,-3.59c0.96,-0.44 2.33,-0.96 3.71,-0.96c1.6,0 2.12,0.86 2.44,1.59c4.77,10.92 15.15,35.09 19.82,45.15c4.35,9.23 6.99,15.7 8.8,18.88v0.53c-2.02,0.75 -3.61,1.06 -4.56,1.06c-1.16,0 -1.8,-0.63 -2.86,-2.97c-2.66,-5.72 -4.56,-10.07 -9.22,-20.56h-28.94zM313.15,1061.49c-6.47,-15.37 -10.7,-25.21 -12.4,-29.03c-4.45,9.85 -8.16,18.44 -12.82,29.03z" />
			<path id="Layer" class="shp0" d="M341.6,1036.58v49.93l1.38,1.81c2.85,0.64 9.96,1.16 18.23,1.16c6.79,0 10.07,-0.22 11.34,-0.42c2.44,-0.54 3.7,-2.44 3.92,-4.35l-0.11,-0.22c-3.29,0.43 -10.28,0.55 -15.48,0.55c-4.98,0 -11.45,-0.21 -13.47,-0.97v-56.4c0,-4.97 -0.42,-5.4 -1.16,-5.4c-1.37,0 -3.5,0.53 -4.98,0.86c0.21,2.01 0.32,6.36 0.32,13.45z" />
			<path id="Layer" class="shp0" d="M417.95,1065.95c-4.77,10.71 -8.27,18.34 -10.38,22.47c-0.32,0.63 -0.96,1.06 -1.81,1.06c-0.95,0 -2.65,-0.42 -3.71,-1.16l0.11,-0.64c6.56,-13.04 25.22,-54.07 28.19,-60.85l-1.59,-3.59c0.95,-0.44 2.33,-0.96 3.71,-0.96c1.6,0 2.13,0.86 2.44,1.59c4.77,10.92 15.15,35.09 19.82,45.15c4.35,9.23 6.99,15.7 8.8,18.88v0.53c-2.01,0.75 -3.6,1.06 -4.56,1.06c-1.16,0 -1.81,-0.63 -2.86,-2.97c-2.66,-5.72 -4.56,-10.07 -9.22,-20.56h-28.94zM445.09,1061.49c-6.47,-15.37 -10.7,-25.21 -12.4,-29.03c-4.46,9.85 -8.16,18.44 -12.83,29.03z" />
			<path id="Layer" class="shp0" d="M476.93,1027.67c0,-4.97 -0.1,-5.4 -1.59,-5.4c-1.17,0 -3.5,0.53 -4.56,0.86c0.22,2.01 0.32,6.36 0.32,13.45v21.2c0,26.29 11.98,32.66 25.97,32.66c10.81,0 27.13,-3.07 27.13,-34.25v-14.84c0,-8.79 0.11,-15.04 0.32,-19.08c-2.12,0 -0.53,0.11 -3.61,0.43c-0.95,0.21 -1.8,0.64 -1.8,2.54v31.17c0,26.4 -11.03,29.46 -21.2,29.46c-8.69,0 -20.99,-3.6 -20.99,-27.77z" />
			<path id="Layer" class="shp0" d="M557.21,1027.04v60.52c0,1.6 0.42,1.91 1.17,1.91c1.06,0 3.17,-0.31 4.98,-0.86c-0.11,-2.11 -0.32,-5.6 -0.32,-12.92v-48.66l21.52,0c1.05,-0.64 2.54,-3.4 2.33,-4.34l-33.82,0c-12.94,0 -15.05,-0.11 -16.12,-0.53c-0.63,0.63 -1.8,2.01 -2.54,3.28c-0.53,1.06 0.1,1.59 1.48,1.59h21.31z" />
			<path id="Layer" class="shp0" d="M641.09,1052.38l-39.97,0v-24.81c0,-4.87 -0.42,-5.3 -1.59,-5.3c-1.27,0 -3.5,0.53 -4.55,0.86c0.21,2.01 0.32,6.36 0.32,13.45v33.51c0,8.9 -0.1,15.14 -0.32,19.39c2.64,-0.11 1.7,0 4.03,-0.42c1.7,-0.32 2.12,-0.63 2.12,-2.55v-29.67l22.37,0c11.98,0 15.47,-0.12 17.6,-0.32v31.48c0,1.17 0.41,1.48 1.06,1.48c0.95,0 3.5,-0.42 5.09,-0.86c-0.11,-2.11 -0.33,-5.6 -0.33,-13.02v-34.25c0,-8.79 0.11,-15.04 0.33,-19.08c-1.28,0 -3.08,0.11 -4.35,0.43c-1.39,0.21 -1.8,0.64 -1.8,2.54v27.14z" />
			<path id="Layer" class="shp0" d="M693.28,1021c19.61,0 33.39,14.84 33.39,34.14c0,17.8 -10.59,35.3 -33.18,35.3c-24.59,0 -33.6,-20.04 -33.6,-33.72c0,-20.24 12.73,-35.72 33.28,-35.72h0.11zM666.36,1056.09c0,19.51 14.21,30.21 27.56,30.21c14.73,0 26.29,-9.98 26.29,-30.96c0,-17.48 -11.66,-30.21 -27.46,-30.21h-0.1c-15.48,0 -26.29,11.87 -26.29,30.96z" />
			<path id="Layer" class="shp0" d="M743.89,1089.17c-2.76,0.31 -4.03,0.31 -4.56,0.31c0.21,-4.25 0.32,-10.49 0.32,-19.28v-35.41c0,-5.21 0,-7.74 -0.22,-11.35c3.19,-0.63 9.11,-1.38 13.79,-1.38c11.76,0 21.62,4.03 21.62,18.45c0,11.03 -9.22,16.33 -13.78,18.02c2.75,1.8 6.26,5.72 10.92,13.15c5.52,8.69 10.61,15.15 12.73,16.75l-0.11,0.53c-0.85,0.52 -2.12,0.74 -4.03,0.74c-2.32,0 -4.66,-1.81 -7.42,-6.04c-4.35,-6.67 -5.41,-8.48 -9.01,-13.67c-5.09,-7.42 -7,-9.97 -14.84,-9.97c-1.27,0 -1.91,0 -3.81,0v26.61c0,1.8 -0.43,2.34 -1.59,2.55zM745.48,1055.98c4.77,0.21 11.23,0.11 12.73,-0.43c5.61,-1.79 10.37,-6.45 10.37,-14.73c0,-11.25 -8.04,-14.52 -15.36,-14.52c-2.87,0 -5.84,0.1 -7.74,0.52z" />
			<path id="Layer" class="shp0" d="M794.05,1087.57c0,1.6 0.42,1.91 1.27,1.91c1.16,0 3.39,-0.31 4.87,-0.86c-0.1,-2.11 -0.32,-5.6 -0.32,-12.92v-48.13c0,-4.67 -0.09,-5.3 -1.27,-5.3c-1.48,0 -3.81,0.53 -4.87,0.86c0.21,1.9 0.32,6.25 0.32,13.35z" />
			<path id="Layer" class="shp0" d="M832.33,1027.04v60.52c0,1.6 0.42,1.91 1.18,1.91c1.06,0 3.18,-0.31 4.97,-0.86c-0.11,-2.11 -0.32,-5.6 -0.32,-12.92v-48.66h21.51c1.06,-0.64 2.55,-3.4 2.34,-4.34h-33.82c-12.92,0 -15.05,-0.11 -16.1,-0.53c-0.64,0.63 -1.81,2.01 -2.55,3.28c-0.53,1.06 0.1,1.59 1.48,1.59h21.31z" />
			<path id="Layer" class="shp0" d="M888.44,1060.54v27.03c0,1.6 0.32,1.91 1.27,1.91c1.26,0 3.92,-0.31 4.88,-0.86c-0.11,-2.11 -0.32,-5.51 -0.32,-12.71v-16.11c0,-1.49 0.21,-2.97 1.05,-4.04c1.81,-2.23 18.66,-25.45 21.52,-29.15c1.48,-2 1.48,-3.19 0.32,-3.59c-1.17,-0.43 -1.91,-0.75 -3.18,-0.75c-2.22,3.61 -18.55,26.4 -21.83,30.74c-6.15,-8.69 -14.43,-20.34 -18.45,-26.29c-2.01,-2.86 -3.17,-4.45 -4.23,-4.45c-1.59,0 -3.5,0.53 -4.88,1.16v0.33c5.3,6.79 18.13,24.91 23.11,32.43c0.74,1.07 0.74,2.45 0.74,4.35z" />
		</g>
		<g id="Folder 42">
			<path id="Layer" class="shp0" d="M16.25,1108.84v39.04c0,0.95 0.54,1.19 1.18,1.19c0.88,0 2.38,-0.23 3.4,-0.64c-0.16,-6 -0.24,-12.32 -0.24,-21.88h15.57c2.37,0 4.35,-0.56 4.27,-3.33h-19.84v-20.62h14.87c2.84,0 4.34,-0.16 4.98,-0.8c0.64,-0.7 0.95,-1.66 1.11,-2.52c-2.84,0 -15.81,0 -21.5,0c-1.67,0.24 -2.77,0.63 -4.04,1.02c0.16,1.11 0.25,3.88 0.25,8.54z" />
			<path id="Layer" class="shp0" d="M71.91,1098c14.62,0 24.89,11.06 24.89,25.46c0,13.27 -7.9,26.32 -24.73,26.32c-18.34,0 -25.06,-14.95 -25.06,-25.14c0,-15.09 9.49,-26.63 24.82,-26.63h0.08zM51.83,1124.17c0,14.55 10.59,22.53 20.55,22.53c10.98,0 19.6,-7.44 19.6,-23.09c0,-13.04 -8.69,-22.52 -20.48,-22.52h-0.07c-11.55,0 -19.61,8.85 -19.61,23.08z" />
			<path id="Layer" class="shp0" d="M109.55,1148.83c-2.05,0.23 -3.01,0.23 -3.4,0.23c0.16,-3.17 0.23,-7.82 0.23,-14.38v-26.4c0,-3.88 0,-5.77 -0.16,-8.47c2.37,-0.47 6.8,-1.03 10.28,-1.03c8.76,0 16.12,3 16.12,13.76c0,8.22 -6.87,12.18 -10.28,13.44c2.06,1.34 4.67,4.26 8.14,9.8c4.11,6.48 7.9,11.3 9.49,12.49l-0.08,0.4c-0.63,0.39 -1.58,0.55 -3,0.55c-1.74,0 -3.48,-1.35 -5.53,-4.51c-3.24,-4.97 -4.03,-6.33 -6.72,-10.19c-3.8,-5.53 -5.22,-7.43 -11.06,-7.43c-0.95,0 -1.42,0 -2.85,0v19.84c0,1.34 -0.31,1.74 -1.18,1.9zM110.73,1124.09c3.56,0.16 8.38,0.08 9.49,-0.32c4.18,-1.34 7.74,-4.81 7.74,-10.98c0,-8.39 -6.01,-10.83 -11.46,-10.83c-2.14,0 -4.35,0.07 -5.78,0.39v21.74z" />
			<path id="Layer" class="shp0" d="M163.57,1147.64c0,1.19 0.31,1.42 0.95,1.42c0.87,0 2.53,-0.23 3.63,-0.64c-0.07,-1.57 -0.23,-4.18 -0.23,-9.63l0,-35.89c0,-3.48 -0.08,-3.95 -0.95,-3.95c-1.1,0 -2.85,0.39 -3.64,0.64c0.16,1.42 0.24,4.66 0.24,9.96z" />
			<path id="Layer" class="shp0" d="M180.58,1109.46c0,-5.37 0,-6.95 -0.16,-9.49c0.79,-0.39 8.22,-1.19 12.41,-1.19c25.37,0 29.32,14.79 29.32,24.35c0,17 -12.17,26.24 -28.45,26.24c-5.53,0 -9.01,-0.7 -13.12,-1.82v-38.1zM184.92,1145.34c1.98,0.64 6.01,0.96 9.17,0.96c12.48,0 23.23,-6.41 23.23,-22.84c0,-12.26 -7.27,-21.43 -24.82,-21.43c-2.92,0 -5.37,0.16 -7.58,0.56v42.75z" />
			<path id="Layer" class="shp0" d="M231.19,1146.85l1.02,1.35c2.05,0.55 7.99,0.87 14.16,0.87c5.05,0 7.5,-0.16 8.45,-0.32c1.66,-0.32 2.68,-1.9 3.16,-3.24l-0.16,-0.16c-2.37,0.32 -6.87,0.41 -10.74,0.41c-4.44,0 -10.05,-0.16 -11.55,-0.72v-20.15h14.86c2.53,0 3.95,-0.16 4.58,-3.33h-19.44v-18.96h13.28c3.4,0 4.35,-0.08 5.22,-0.56c0.87,-0.71 1.42,-2.05 1.42,-2.76c-5.45,0 -14.46,0 -20.87,0c-1.26,0.24 -2.61,0.71 -3.56,1.1c0.17,2.69 0.17,6.25 0.17,9.96z" />
			<path id="Layer" class="shp0" d="M265.82,1103.15v31.54c0,6.63 -0.08,11.21 -0.24,14.38c0.56,0 1.27,-0.08 2.29,-0.32c1.03,-0.24 1.5,-0.47 1.5,-2.6v-20.08c0,-4.04 -0.08,-8.38 -0.39,-19.14c2.92,4.27 6.25,8.53 7.9,10.76c7.51,9.48 18.02,23.47 24.34,31.77c0.16,0 0.47,0.17 0.64,0.17c0.71,0 2.05,-0.64 2.45,-1.03v-35.1c0,-6.56 0.08,-11.14 0.24,-14.54c-1.27,0 -0.24,0 -2.45,0.32c-0.87,0.15 -1.43,0.47 -1.43,2.29v21.9c0,3.95 0,9.96 0.4,19.6c-2.3,-3.81 -6.32,-8.93 -10.75,-14.54c-10.12,-12.8 -19.05,-25.14 -21.89,-28.23c-0.64,-0.95 -1.34,-1.34 -1.73,-1.34c-0.87,0 -2.77,0.39 -3.4,0.64v0.31z" />
			<path id="Layer" class="shp0" d="M329.08,1102.51v45.13c0,1.19 0.32,1.42 0.88,1.42c0.79,0 2.37,-0.23 3.71,-0.64c-0.08,-1.57 -0.24,-4.18 -0.24,-9.63v-36.28h16.04c0.79,-0.48 1.9,-2.53 1.75,-3.24h-25.22c-9.64,0 -11.22,-0.08 -12.02,-0.4c-0.47,0.47 -1.34,1.5 -1.9,2.45c-0.39,0.79 0.07,1.19 1.11,1.19l15.89,0z" />
			<path id="Layer" class="shp0" d="M357.48,1147.64c0,1.19 0.31,1.42 0.95,1.42c0.87,0 2.53,-0.23 3.64,-0.64c-0.08,-1.57 -0.25,-4.18 -0.25,-9.63v-35.89c0,-3.48 -0.07,-3.95 -0.95,-3.95c-1.1,0 -2.84,0.39 -3.63,0.64c0.16,1.42 0.24,4.66 0.24,9.96z" />
			<path id="Layer" class="shp0" d="M386.02,1102.51v45.13c0,1.19 0.31,1.42 0.87,1.42c0.79,0 2.37,-0.23 3.71,-0.64c-0.08,-1.57 -0.24,-4.18 -0.24,-9.63v-36.28l16.05,0c0.78,-0.48 1.89,-2.53 1.74,-3.24l-25.22,0c-9.63,0 -11.22,-0.08 -12.01,-0.4c-0.47,0.47 -1.35,1.5 -1.9,2.45c-0.39,0.79 0.08,1.19 1.11,1.19h15.89z" />
			<path id="Layer" class="shp0" d="M427.85,1127.49v20.15c0,1.19 0.24,1.42 0.95,1.42c0.94,0 2.92,-0.23 3.63,-0.64c-0.08,-1.58 -0.23,-4.11 -0.23,-9.48v-12.01c0,-1.11 0.16,-2.22 0.79,-3.01c1.35,-1.66 13.91,-18.97 16.05,-21.74c1.11,-1.49 1.11,-2.38 0.24,-2.68c-0.87,-0.32 -1.43,-0.56 -2.38,-0.56c-1.66,2.69 -13.83,19.68 -16.28,22.92c-4.58,-6.48 -10.75,-15.17 -13.75,-19.6c-1.5,-2.14 -2.37,-3.32 -3.16,-3.32c-1.19,0 -2.61,0.39 -3.64,0.86v0.25c3.95,5.06 13.52,18.57 17.23,24.18c0.55,0.8 0.55,1.82 0.55,3.24z" />
			<path id="Layer" class="shp0" d="M514.91,1148.51c-0.94,0.64 -2.6,1.35 -3.47,1.35c-0.63,0 -1.19,-0.41 -2.61,-1.74c-1.34,-1.27 -3.32,-3.4 -7.98,-7.75c-5.77,8.05 -11.46,9.17 -15.25,9.17c-7.91,0 -13.59,-4.74 -13.59,-12.81c0,-7.04 5.77,-10.98 10.36,-14.3c-3.4,-3.16 -5.62,-7.03 -5.62,-11.14c0,-7.04 5.14,-11.23 11.14,-11.23c5.06,0 10.03,2.84 10.03,9.87c0,6.33 -6,9.81 -10.11,12.57c4.42,4.34 11.53,10.99 12.95,12.32c3.72,-6.48 7.2,-12.81 9.41,-15.81c1.59,-2.05 2.29,-2.76 2.93,-2.76c0.79,0 1.81,0.87 2.52,1.9v0.4c-3,2.77 -6.95,8.69 -12.4,18.26c7.91,7.43 10.83,10.44 11.7,11.3v0.39zM498.62,1138.23c-5.85,-5.54 -11.77,-11.39 -14.3,-13.83c-5.37,3.88 -8.07,7.43 -8.07,12.02c0,5.93 4.82,9.64 9.88,9.64h0.08c3.4,0 7.75,-0.94 12.41,-7.83zM480.69,1111.04c0,2.53 1.35,6.17 5.29,9.57c5.06,-3.48 7.98,-6.56 7.98,-10.75c0,-4.35 -3.08,-6.79 -6.49,-6.79c-4.27,0 -6.79,3.31 -6.79,7.89z" />
			<path id="Layer" class="shp0" d="M578.65,1143.61c-2.37,1.19 -7.59,2.7 -12.17,2.7c-14.86,0 -22.84,-9.25 -22.84,-22.45c0,-14.62 10.2,-22.29 21.66,-22.29c4.82,0 9.02,1.26 11.94,2.84c0.71,0.16 2.22,-0.47 2.46,-2.44c-1.27,-1.5 -6.64,-3.95 -14,-3.95c-15.26,0 -26.88,10.51 -26.88,26.17c0,15.17 8.85,25.61 26.24,25.61c5.46,0 10.04,-1.35 11.62,-2.46c1.19,-0.7 2.05,-2.37 2.14,-3.48z" />
			<path id="Layer" class="shp0" d="M586.9,1109.55v38.09c0,1.19 0.31,1.42 0.94,1.42c0.88,0 2.54,-0.23 3.65,-0.64c-0.09,-1.57 -0.25,-4.18 -0.25,-9.63v-35.89c0,-3.48 -0.07,-3.95 -0.95,-3.95c-1.1,0 -2.85,0.39 -3.63,0.64c0.16,1.42 0.24,4.66 0.24,9.96z" />
			<path id="Layer" class="shp0" d="M615.44,1102.51v45.13c0,1.19 0.32,1.42 0.87,1.42c0.79,0 2.37,-0.23 3.71,-0.64c-0.08,-1.57 -0.24,-4.18 -0.24,-9.63v-36.28h16.04c0.79,-0.48 1.9,-2.53 1.74,-3.24l-25.23,0c-9.63,0 -11.22,-0.08 -12.01,-0.4c-0.47,0.47 -1.35,1.5 -1.9,2.45c-0.4,0.79 0.08,1.19 1.1,1.19h15.89z" />
			<path id="Layer" class="shp0" d="M643.83,1147.64c0,1.19 0.32,1.42 0.95,1.42c0.86,0 2.53,-0.23 3.64,-0.64c-0.08,-1.57 -0.25,-4.18 -0.25,-9.63v-35.89c0,-3.48 -0.08,-3.95 -0.95,-3.95c-1.1,0 -2.84,0.39 -3.63,0.64c0.16,1.42 0.23,4.66 0.23,9.96z" />
			<path id="Layer" class="shp0" d="M696.49,1145.59c-5.14,0.3 -24.26,0.23 -33.43,-0.17c12.49,-16.52 24.58,-34.14 29.08,-41.33c0.95,-1.58 1.66,-3 2.05,-4.82h-27.74c-3.01,0 -4.74,-0.16 -5.77,-0.48c-0.71,0.48 -2.06,1.82 -2.06,2.61c0,0.63 0.08,1.11 4.67,1.11c4.82,0 18.81,0 25.37,0c-5.85,9.65 -20.79,30.59 -31.77,44.27c0.07,0.54 0.47,0.94 1.26,1.64c1.02,0.41 4.9,0.64 24.49,0.64c8.86,0 10.12,-0.16 10.83,-0.47c1.03,-0.4 1.82,-0.87 3.08,-2.84z" />
			<path id="Layer" class="shp0" d="M704.1,1146.85l1.03,1.35c2.05,0.55 7.98,0.87 14.15,0.87c5.06,0 7.51,-0.16 8.45,-0.32c1.66,-0.32 2.69,-1.9 3.16,-3.24l-0.16,-0.16c-2.37,0.32 -6.88,0.41 -10.74,0.41c-4.43,0 -10.04,-0.16 -11.55,-0.72v-20.15h14.86c2.53,0 3.95,-0.16 4.59,-3.33l-19.45,0v-18.96h13.28c3.41,0 4.36,-0.08 5.22,-0.56c0.87,-0.71 1.43,-2.05 1.43,-2.76c-5.46,0 -14.46,0 -20.87,0c-1.26,0.24 -2.61,0.71 -3.56,1.1c0.16,2.69 0.16,6.25 0.16,9.96z" />
			<path id="Layer" class="shp0" d="M738.65,1103.15v31.54c0,6.63 -0.07,11.21 -0.23,14.38c0.55,0 1.26,-0.08 2.29,-0.32c1.03,-0.24 1.5,-0.47 1.5,-2.6v-20.08c0,-4.04 -0.08,-8.38 -0.39,-19.14c2.92,4.27 6.24,8.53 7.89,10.76c7.52,9.48 18.02,23.47 24.35,31.77c0.15,0 0.47,0.17 0.63,0.17c0.71,0 2.06,-0.64 2.45,-1.03v-35.1c0,-6.56 0.08,-11.14 0.24,-14.54c-1.26,0 -0.24,0 -2.45,0.32c-0.87,0.15 -1.43,0.47 -1.43,2.29v21.9c0,3.95 0,9.96 0.4,19.6c-2.3,-3.81 -6.32,-8.93 -10.76,-14.54c-10.11,-12.8 -19.04,-25.14 -21.89,-28.23c-0.64,-0.95 -1.35,-1.34 -1.74,-1.34c-0.87,0 -2.77,0.39 -3.4,0.64v0.31z" />
			<path id="Layer" class="shp0" d="M803.02,1098h-0.08c-11.53,0 -14.54,7.9 -14.54,12.33c0,4.35 0.87,8.94 10.28,14.23c7.43,4.1 11.22,6.64 11.22,12.63c0,5.54 -4.19,9.1 -10.74,9.1c-3.4,0 -8.07,-1.27 -11,-3.72c-0.39,0.95 -0.47,1.19 -0.63,2.53c0,0.71 0.4,1.19 0.95,1.66c1.5,1.26 5.45,3 10.43,3c8.77,0 15.49,-5.13 15.49,-13.28c0,-6.47 -2.52,-9.72 -11.86,-14.94c-6.56,-3.62 -9.72,-6.01 -9.72,-11.54c0,-6.39 5.3,-8.61 9.56,-8.61c3.16,0 5.76,0.95 7.98,2.13c1.03,-0.08 1.81,-1.5 1.74,-2.53c-1.81,-1.82 -6.08,-3 -9.09,-3z" />
			<path id="Layer" class="shp0" d="M857.34,1121.4h-29.8v-18.5c0,-3.63 -0.31,-3.95 -1.19,-3.95c-0.94,0 -2.61,0.39 -3.39,0.64c0.16,1.5 0.24,4.74 0.24,10.03v24.98c0,6.64 -0.08,11.29 -0.24,14.46c1.97,-0.08 1.26,0 3.01,-0.32c1.26,-0.24 1.57,-0.47 1.57,-1.9v-22.13h16.68c8.94,0 11.54,-0.09 13.12,-0.24v23.48c0,0.87 0.32,1.11 0.8,1.11c0.71,0 2.6,-0.32 3.79,-0.64c-0.08,-1.58 -0.24,-4.18 -0.24,-9.71v-25.54c0,-6.56 0.08,-11.22 0.24,-14.22c-0.95,0 -2.29,0.08 -3.24,0.32c-1.03,0.15 -1.34,0.48 -1.34,1.9v20.24z" />
			<path id="Layer" class="shp0" d="M874.36,1109.55v38.09c0,1.19 0.31,1.42 0.95,1.42c0.87,0 2.54,-0.23 3.64,-0.64c-0.08,-1.57 -0.24,-4.18 -0.24,-9.63v-35.89c0,-3.48 -0.07,-3.95 -0.95,-3.95c-1.1,0 -2.84,0.39 -3.64,0.64c0.16,1.42 0.24,4.66 0.24,9.96z" />
			<path id="Layer" class="shp0" d="M891.36,1110.26v37.38c0,1.19 0.56,1.42 1.11,1.42c1.1,0 2.44,-0.23 3.47,-0.64c-0.07,-1.57 -0.24,-4.18 -0.24,-9.63v-36.44c1.74,-0.24 3.25,-0.32 5.3,-0.32c5.06,0 13.52,1.19 13.52,11.94c0,9.33 -6.72,11.62 -10.75,11.62c-1.5,0 -3.71,-0.23 -5.06,-0.7c-0.15,0.95 0.48,2.29 1.04,2.7c0.87,0.71 2.22,1.03 4.5,1.03c7.19,0 15.1,-5.06 15.1,-15.02c0,-10.36 -7.59,-14.79 -17.86,-14.79c-3.72,0 -8.07,0.48 -10.44,0.8c0.31,3.63 0.31,6.87 0.31,10.67z" />
		</g>
		<g id="Folder 58">
			<path id="Layer" class="shp0" d="M98.73,863.33v10.46l-52.59,0c-8.32,0 -15.42,-2.95 -21.28,-8.86c-5.9,-5.9 -8.85,-13.02 -8.85,-21.34v-10.67c0,-8.33 2.95,-15.44 8.85,-21.34c5.87,-5.9 12.96,-8.86 21.28,-8.86c8.32,0 15.43,2.95 21.34,8.86c5.86,5.9 8.79,13.02 8.79,21.34v30.41zM60.08,818.97c-3.86,-3.82 -8.51,-5.72 -13.94,-5.72c-5.44,0 -10.07,1.9 -13.89,5.72c-3.86,3.85 -5.79,8.5 -5.79,13.94v10.67c0,5.44 1.93,10.09 5.79,13.95c3.82,3.86 8.45,5.79 13.89,5.79h19.73v-30.41c0,-5.44 -1.93,-10.09 -5.79,-13.94zM31.07,788.63c-1.25,0 -1.88,-0.63 -1.88,-1.88v-8.45c0,-1.25 0.63,-1.88 1.88,-1.88h7.05c1.3,0 1.95,0.63 1.95,1.88v8.45c0,1.26 -0.65,1.88 -1.95,1.88zM50.11,788.63c-1.26,0 -1.88,-0.63 -1.88,-1.88v-8.45c0,-1.25 0.63,-1.88 1.88,-1.88h7.04c1.31,0 1.96,0.63 1.96,1.88v8.45c0,1.26 -0.65,1.88 -1.96,1.88z" />
			<path id="Layer" class="shp0" d="M113.86,873.79c5.44,0 9.84,-1.63 13.18,-4.89c3.35,-3.3 5.03,-7.74 5.03,-13.32v-48.13c0,-1.25 -0.65,-1.88 -1.95,-1.88l-6.63,0c-1.3,0 -1.95,0.63 -1.95,1.88v48.13c0,2.65 -0.63,4.61 -1.88,5.86c-1.16,1.21 -3.04,1.84 -5.65,1.88h-22.25v10.46zM101.3,887.4c-1.25,0 -1.88,0.64 -1.88,1.95v8.37c0,1.25 0.63,1.88 1.88,1.88h7.05c1.3,0 1.95,-0.63 1.95,-1.88v-8.37c0,-1.31 -0.65,-1.95 -1.95,-1.95zM120.35,887.4c-1.25,0 -1.88,0.64 -1.88,1.95v8.37c0,1.25 0.63,1.88 1.88,1.88l7.05,0c1.3,0 1.95,-0.63 1.95,-1.88v-8.37c0,-1.31 -0.65,-1.95 -1.95,-1.95z" />
			<path id="Layer" class="shp0" d="M161.63,807.88l-2.79,1.96c-0.37,0.28 -0.63,0.7 -0.77,1.25v0.28c0,0.37 0.11,0.74 0.35,1.11l3.9,5.44c0.32,0.42 0.75,0.67 1.25,0.77h0.21c0.46,0 0.86,-0.12 1.19,-0.35l2.72,-1.96c2.97,-2.1 7.49,-3.14 13.53,-3.14c4.23,0 7.85,1.49 10.89,4.47c2.97,2.97 4.46,6.57 4.46,10.81v22.81c0,4.14 -0.86,7.09 -2.58,8.86c-2.1,2.1 -5.86,3.14 -11.3,3.14h-30.62c-1.25,0 -1.88,0.62 -1.88,1.88v6.7c0,1.25 0.63,1.88 1.88,1.88h30.62c6.83,0 12.28,-1.41 16.32,-4.25c5.35,-3.77 8.02,-9.83 8.02,-18.21v-22.81c0,-7.12 -2.51,-13.19 -7.53,-18.2c-5.07,-5.07 -11.16,-7.6 -18.28,-7.6c-8.32,0 -14.86,1.72 -19.61,5.16z" />
			<path id="Layer" class="shp0" d="M248.2,873.79h6.69v-10.46h-6.9c-2.47,0 -4.35,-0.63 -5.65,-1.88c-1.21,-1.25 -1.81,-3.21 -1.81,-5.86v-83c0,-1.3 -0.65,-1.96 -1.95,-1.96h-6.63c-1.25,0 -1.88,0.65 -1.88,1.96v83c0,5.63 1.66,10.07 4.96,13.32c3.25,3.26 7.65,4.89 13.18,4.89z" />
			<path id="Layer" class="shp0" d="M352.4,863.33h-6.69c-4.14,0 -6.95,-0.74 -8.44,-2.23c-0.84,-0.79 -1.25,-2 -1.25,-3.63v-21.69c0,-9.11 -3.24,-16.88 -9.7,-23.29c-6.42,-6.47 -14.19,-9.7 -23.3,-9.7c-13.71,0 -24.2,5.02 -31.46,15.06l-1.95,2.72c-0.19,0.33 -0.28,0.67 -0.28,1.04v0.35c0.09,0.51 0.35,0.93 0.77,1.25l5.43,3.83c0.43,0.33 0.82,0.49 1.19,0.49c0.56,0 1.06,-0.3 1.47,-0.91l1.95,-2.72c5.03,-7.12 12.65,-10.67 22.88,-10.67c6.23,0 11.55,2.21 15.97,6.63c4.37,4.37 6.56,9.67 6.56,15.9v13.74c0,4.79 -1.09,8.28 -3.28,10.46c-2.23,2.22 -5.75,3.35 -10.53,3.35h-60.33v10.46h60.33c8.05,0 14.2,-2.4 18.48,-7.18c0.56,0.79 1.07,1.44 1.54,1.96c3.53,3.49 8.76,5.23 15.69,5.23h4.95z" />
			<path id="Layer" class="shp0" d="M389.79,805.57h-6.77c-1.21,0 -1.82,0.63 -1.82,1.88v48.2c0,2.55 -0.65,4.51 -1.95,5.86c-1.17,1.17 -3.03,1.79 -5.58,1.88c-0.05,0 -0.09,-0.02 -0.15,-0.07h-24.62v10.46h24.55c5.44,0 9.86,-1.63 13.26,-4.89c3.25,-3.3 4.88,-7.74 4.88,-13.32v-48.13c0,-1.25 -0.6,-1.88 -1.81,-1.88zM380.38,788.63c1.3,0 1.95,-0.62 1.95,-1.88v-8.45c0,-1.25 -0.65,-1.88 -1.95,-1.88h-6.98c-1.3,0 -1.95,0.63 -1.95,1.88v8.45c0,1.25 0.65,1.88 1.95,1.88zM392.44,776.42c-1.3,0 -1.95,0.63 -1.95,1.88v8.45c0,1.25 0.65,1.88 1.95,1.88h6.98c1.3,0 1.95,-0.62 1.95,-1.88v-8.45c0,-1.25 -0.65,-1.88 -1.95,-1.88z" />
			<path id="Layer" class="shp0" d="M472.44,770.63c-1.3,0 -1.95,0.65 -1.95,1.96v76.86c0,4.78 -1.1,8.3 -3.28,10.53c-2.23,2.22 -5.74,3.35 -10.53,3.35l-42.27,0c-1.25,0 -1.89,0.62 -1.89,1.88v6.63c0,1.3 0.63,1.95 1.89,1.95l42.27,0c7.62,0 13.57,-2.16 17.85,-6.48c4.32,-4.28 6.48,-10.23 6.48,-17.86v-76.86c0,-1.3 -0.65,-1.96 -1.95,-1.96zM442.94,851.47c1.25,0 1.88,-0.65 1.88,-1.95v-65.57c0,-1.25 -0.63,-1.88 -1.88,-1.88h-6.7c-1.26,0 -1.88,0.62 -1.88,1.88v65.57c0,1.3 0.63,1.95 1.88,1.95z" />
			<path id="Layer" class="shp0" d="M514.5,772.51c0,-1.26 -0.61,-1.88 -1.82,-1.88h-6.76c-1.26,0 -1.88,0.63 -1.88,1.88v99.4c0,1.25 0.63,1.88 1.88,1.88h6.76c1.21,0 1.82,-0.62 1.82,-1.88z" />
			<path id="Layer" class="shp0" d="M650.79,863.33v10.46h-52.59c-8.33,0 -15.41,-2.95 -21.27,-8.86c-5.91,-5.9 -8.86,-13.02 -8.86,-21.34v-10.67c0,-8.33 2.95,-15.44 8.86,-21.34c5.86,-5.9 12.95,-8.86 21.27,-8.86c8.32,0 15.43,2.95 21.34,8.86c5.86,5.9 8.79,13.02 8.79,21.34v30.41zM617.93,832.92c0,-5.44 -1.93,-10.09 -5.79,-13.94c-3.86,-3.82 -8.51,-5.72 -13.95,-5.72c-5.44,0 -10.07,1.9 -13.88,5.72c-3.87,3.85 -5.8,8.5 -5.8,13.94v10.67c0,5.44 1.93,10.09 5.8,13.95c3.81,3.86 8.44,5.79 13.88,5.79h19.73zM583.13,788.63c-1.25,0 -1.88,-0.63 -1.88,-1.88v-8.45c0,-1.25 0.63,-1.88 1.88,-1.88h7.05c1.3,0 1.95,0.63 1.95,1.88v8.45c0,1.26 -0.65,1.88 -1.95,1.88zM602.18,788.63c-1.25,0 -1.88,-0.63 -1.88,-1.88v-8.45c0,-1.25 0.63,-1.88 1.88,-1.88h7.04c1.3,0 1.95,0.63 1.95,1.88v8.45c0,1.26 -0.65,1.88 -1.95,1.88z" />
			<path id="Layer" class="shp0" d="M699.68,863.32h-6.62c-4.14,0 -6.95,-0.74 -8.44,-2.23c-0.8,-0.83 -1.19,-2.05 -1.19,-3.63v-49.94c0,-1.3 -0.65,-1.95 -1.95,-1.95h-6.62c-1.31,0 -1.96,0.65 -1.96,1.95v47.99c0,2.74 -0.63,4.72 -1.89,5.93c-1.21,1.25 -3.07,1.88 -5.58,1.88h-21.62v10.47h21.41c5.53,0 9.95,-1.63 13.26,-4.89c0.09,-0.14 0.23,-0.34 0.42,-0.62c0.09,0.1 0.16,0.18 0.21,0.28c3.53,3.49 8.77,5.23 15.7,5.23h4.88zM666.56,794.78h24.27c0.88,0 1.33,-0.44 1.33,-1.33v-3.07c0,-0.88 -0.45,-1.33 -1.33,-1.33h-14.58v-8.37c0,-1.35 0.49,-2.51 1.47,-3.49c0.98,-0.97 2.14,-1.46 3.49,-1.46c2.18,0 3.71,1 4.61,3l0.62,1.39c0.24,0.56 0.58,0.83 1.05,0.83c0.19,0 0.42,-0.04 0.7,-0.14l2.79,-1.11c0.33,-0.14 0.56,-0.4 0.7,-0.77c0.1,-0.19 0.15,-0.35 0.15,-0.49c0,-0.19 -0.05,-0.38 -0.15,-0.56l-0.62,-1.39c-1.82,-4.32 -5.09,-6.49 -9.83,-6.49c-2.94,0 -5.44,1.05 -7.54,3.14c-2.09,2.09 -3.14,4.6 -3.14,7.53v8.37h-3.97c-0.88,0 -1.33,0.45 -1.33,1.33v3.07c0,0.89 0.45,1.33 1.33,1.33z" />
			<path id="Layer" class="shp0" d="M752.13,873.79v-10.47h-6.62c-4.18,0 -7.02,-0.74 -8.51,-2.23c-0.8,-0.79 -1.19,-2 -1.19,-3.63v-49.94c0,-1.3 -0.64,-1.95 -1.95,-1.95h-6.63c-1.25,0 -1.88,0.65 -1.88,1.95v47.99c0,2.74 -0.63,4.72 -1.88,5.93c-1.22,1.25 -3.07,1.88 -5.58,1.88h-21.69v10.47h21.41c5.58,0 10,-1.63 13.25,-4.89c0.05,-0.05 0.12,-0.14 0.21,-0.28c0.14,-0.14 0.24,-0.25 0.29,-0.34c0.04,0.1 0.12,0.18 0.21,0.28c3.48,3.49 8.71,5.23 15.69,5.23h4.88zM710.91,887.4c-1.24,0 -1.88,0.64 -1.88,1.95v8.37c0,1.25 0.63,1.88 1.88,1.88h7.05c1.3,0 1.95,-0.63 1.95,-1.88v-8.37c0,-1.31 -0.65,-1.95 -1.95,-1.95zM730.03,887.4c-1.31,0 -1.96,0.64 -1.96,1.95v8.37c0,1.25 0.65,1.88 1.96,1.88h6.97c1.3,0 1.95,-0.63 1.95,-1.88v-8.37c0,-1.31 -0.65,-1.95 -1.95,-1.95z" />
			<path id="Layer" class="shp0" d="M853.97,873.79h-21.06v0.77c0,8.28 -2.93,15.37 -8.79,21.28c-5.9,5.9 -13.01,8.86 -21.34,8.86c-8.28,0 -15.37,-2.96 -21.27,-8.86c-5.91,-5.91 -8.86,-13 -8.86,-21.28v-0.77l-23.99,0v-10.46l23.99,0v-30.34c0,-8.32 2.95,-15.44 8.86,-21.35c5.9,-5.85 12.99,-8.79 21.27,-8.79c8.32,0 15.44,2.94 21.34,8.79c5.86,5.91 8.79,13.03 8.79,21.35v10.67c0,7.9 -2.67,14.74 -8.02,20.51c0.83,-0.56 1.77,-0.84 2.79,-0.84h26.3zM783.1,863.33h19.68c5.44,0 10.08,-1.91 13.95,-5.72c3.86,-3.86 5.79,-8.5 5.79,-13.94v-10.67c0,-5.44 -1.93,-10.09 -5.79,-13.95c-3.86,-3.81 -8.5,-5.72 -13.95,-5.72c-5.39,0 -10.02,1.91 -13.88,5.72c-3.87,3.86 -5.8,8.51 -5.8,13.95zM822.51,868.56c0,-1.03 0.26,-1.98 0.77,-2.87c-5.72,5.39 -12.55,8.09 -20.5,8.09h-19.68v0.77c0,5.39 1.93,10.02 5.8,13.88c3.86,3.86 8.49,5.79 13.88,5.79c5.44,0 10.08,-1.93 13.95,-5.79c3.86,-3.86 5.79,-8.49 5.79,-13.88z" />
			<path id="Layer" class="shp0" d="M875.94,770.63c-1.25,0 -1.88,0.65 -1.88,1.96v83.07c0,2.6 -0.63,4.56 -1.88,5.86c-1.16,1.21 -3.05,1.84 -5.65,1.88c-0.05,0 -0.09,-0.02 -0.14,-0.07l-16.61,0v10.47l16.53,0c5.49,0 9.91,-1.63 13.26,-4.89c3.3,-3.3 4.95,-7.74 4.95,-13.32v-83c0,-1.3 -0.62,-1.96 -1.88,-1.96z" />
			<path id="Layer" class="shp0" d="M918,772.51c0,-1.26 -0.61,-1.88 -1.82,-1.88h-6.76c-1.26,0 -1.89,0.63 -1.89,1.88v99.4c0,1.25 0.62,1.88 1.89,1.88h6.76c1.21,0 1.82,-0.62 1.82,-1.88z" />
		</g>
		<g id="Folder 78">
			<path id="Layer" class="shp0" d="M83.23,969.33v8.5h-42.74c-6.77,0 -12.53,-2.4 -17.29,-7.2c-4.8,-4.8 -7.2,-10.58 -7.2,-17.34v-8.67c0,-6.77 2.4,-12.55 7.2,-17.35c4.76,-4.8 10.52,-7.2 17.29,-7.2c6.76,0 12.55,2.4 17.34,7.2c4.76,4.8 7.14,10.58 7.14,17.35v24.71zM56.53,944.62c0,-4.42 -1.57,-8.2 -4.7,-11.33c-3.14,-3.1 -6.92,-4.65 -11.34,-4.65c-4.42,0 -8.18,1.55 -11.28,4.65c-3.14,3.13 -4.7,6.91 -4.7,11.33v8.67c0,4.42 1.57,8.2 4.7,11.34c3.1,3.13 6.86,4.7 11.28,4.7h16.04zM28.24,908.62c-1.02,0 -1.53,-0.51 -1.53,-1.53v-6.86c0,-1.02 0.51,-1.53 1.53,-1.53h5.73c1.06,0 1.59,0.51 1.59,1.53v6.86c0,1.02 -0.53,1.53 -1.59,1.53zM43.72,908.62c-1.02,0 -1.53,-0.51 -1.53,-1.53v-6.86c0,-1.02 0.51,-1.53 1.53,-1.53h5.72c1.06,0 1.59,0.51 1.59,1.53v6.86c0,1.02 -0.53,1.53 -1.59,1.53z" />
			<path id="Layer" class="shp0" d="M78.13,977.84h23.64v-8.5h-23.64z" />
			<path id="Layer" class="shp0" d="M100.63,977.84l23.64,0v-8.5l-23.64,0z" />
			<path id="Layer" class="shp0" d="M168.03,977.84v-8.51h-5.38c-3.4,0 -5.71,-0.6 -6.92,-1.81c-0.65,-0.64 -0.96,-1.63 -0.96,-2.95v-40.58c0,-1.05 -0.53,-1.59 -1.59,-1.59h-5.38c-1.02,0 -1.53,0.53 -1.53,1.59v39c0,2.23 -0.51,3.84 -1.53,4.82c-0.98,1.02 -2.49,1.53 -4.54,1.53h-17.63v8.51h17.4c4.53,0 8.12,-1.32 10.77,-3.97c0.04,-0.04 0.1,-0.11 0.17,-0.23c0.11,-0.11 0.19,-0.2 0.23,-0.28c0.04,0.08 0.1,0.15 0.17,0.23c2.84,2.84 7.09,4.25 12.75,4.25h3.97zM134.53,988.89c-1.02,0 -1.53,0.52 -1.53,1.58v6.8c0,1.02 0.51,1.53 1.53,1.53h5.73c1.05,0 1.58,-0.51 1.58,-1.53v-6.8c0,-1.06 -0.53,-1.58 -1.58,-1.58zM150.06,988.89c-1.06,0 -1.59,0.52 -1.59,1.58v6.8c0,1.02 0.53,1.53 1.59,1.53h5.67c1.06,0 1.59,-0.51 1.59,-1.53v-6.8c0,-1.06 -0.53,-1.58 -1.59,-1.58z" />
			<path id="Layer" class="shp0" d="M267.8,977.84v-8.5h-5.44c-2.68,0 -4.74,-0.71 -6.18,-2.15c-1.1,-1.1 -1.64,-2.5 -1.64,-4.19v-39.06c0,-1.02 -0.51,-1.53 -1.53,-1.53h-5.44c-1.02,0 -1.53,0.51 -1.53,1.53v39.05c0,2.19 -0.51,3.8 -1.53,4.82c-1.06,1.02 -2.62,1.53 -4.7,1.53h-7.32c-3.4,0 -5.71,-0.6 -6.92,-1.81c-0.65,-0.64 -0.96,-1.63 -0.96,-2.95v-37.58c0,-1.02 -0.51,-1.53 -1.53,-1.53h-5.45c-1.02,0 -1.53,0.51 -1.53,1.53v35.99c0,2.23 -0.51,3.84 -1.53,4.82c-0.99,1.02 -2.5,1.53 -4.54,1.53h-7.48c-3.36,0 -5.67,-0.6 -6.91,-1.81c-0.65,-0.68 -0.97,-1.66 -0.97,-2.95v-40.64c0,-1.02 -0.51,-1.53 -1.53,-1.53h-5.44c-1.02,0 -1.53,0.51 -1.53,1.53v39.06c0,2.19 -0.51,3.8 -1.53,4.82c-0.95,1.02 -2.46,1.53 -4.54,1.53h-14.91v8.51h14.68c4.54,0 8.12,-1.32 10.77,-3.97c0.11,-0.11 0.25,-0.28 0.4,-0.51c0,0.04 0.02,0.08 0.06,0.11c0.04,0.04 0.08,0.08 0.12,0.12c2.83,2.84 7.08,4.25 12.75,4.25h5.78c4.57,0 8.18,-1.32 10.83,-3.97h-0.06c0,-0.04 0.15,-0.21 0.45,-0.51c0.04,0.04 0.07,0.08 0.11,0.11c0,0.04 0.02,0.08 0.06,0.12c2.87,2.84 7.12,4.25 12.76,4.25h5.89c4.49,0 8.07,-1.32 10.71,-3.97c0.42,-0.42 0.7,-0.75 0.85,-1.02c0.04,0.08 0.1,0.15 0.17,0.23c0.04,0.07 0.08,0.14 0.12,0.17c3.1,3.06 7.18,4.59 12.25,4.59h3.91z" />
			<path id="Layer" class="shp0" d="M310.42,977.84v-8.51h-5.38c-3.41,0 -5.71,-0.6 -6.92,-1.81c-0.65,-0.64 -0.96,-1.63 -0.96,-2.95v-40.58c0,-1.05 -0.53,-1.59 -1.59,-1.59h-5.38c-1.02,0 -1.53,0.53 -1.53,1.59v39c0,2.23 -0.51,3.84 -1.53,4.82c-0.98,1.02 -2.49,1.53 -4.54,1.53h-17.62v8.51h17.4c4.53,0 8.12,-1.32 10.77,-3.97c0.04,-0.04 0.1,-0.11 0.17,-0.23c0.11,-0.11 0.19,-0.2 0.23,-0.28c0.04,0.08 0.1,0.15 0.17,0.23c2.83,2.84 7.09,4.25 12.76,4.25h3.97zM295.74,908.62c1.05,0 1.58,-0.51 1.58,-1.53v-6.86c0,-1.01 -0.53,-1.53 -1.58,-1.53h-5.73c-1.02,0 -1.53,0.51 -1.53,1.53v6.86c0,1.02 0.51,1.53 1.53,1.53z" />
			<path id="Layer" class="shp0" d="M389.6,977.84v-8.51h-5.44c-3.4,-0.04 -5.67,-0.63 -6.8,-1.76c-0.68,-0.64 -1.02,-1.64 -1.02,-3v-17.63c0,-7.4 -2.62,-13.73 -7.88,-18.99c-5.25,-5.21 -11.58,-7.82 -18.99,-7.82c-11.19,0 -19.69,4.06 -25.51,12.19l-1.59,2.21c-0.19,0.31 -0.28,0.61 -0.28,0.91v0.29c0.07,0.42 0.28,0.75 0.62,1.02l4.42,3.11c0.34,0.27 0.67,0.4 0.97,0.4c0.45,0 0.85,-0.25 1.19,-0.74l1.58,-2.21c4.16,-5.78 10.36,-8.67 18.6,-8.67c5.06,0 9.39,1.79 12.98,5.39c3.59,3.56 5.38,7.86 5.38,12.92v11.17c0,3.85 -0.9,6.71 -2.72,8.56c-1.81,1.74 -4.67,2.62 -8.56,2.66h-48.97v8.5h48.97c6.54,0 11.55,-1.95 15.02,-5.84c0.53,0.72 0.95,1.23 1.25,1.53c2.87,2.88 7.14,4.31 12.81,4.31h3.97zM340.23,988.1c-1.06,0 -1.59,0.52 -1.59,1.59v6.8c0,1.02 0.53,1.53 1.59,1.53h5.72c1.02,0 1.53,-0.51 1.53,-1.53v-6.8c0,-1.06 -0.51,-1.59 -1.53,-1.59z" />
			<path id="Layer" class="shp0" d="M408.02,894c-1.02,0 -1.53,0.53 -1.53,1.59v67.51c0,2.11 -0.51,3.7 -1.53,4.76c-0.94,0.98 -2.47,1.49 -4.59,1.53c-0.04,0 -0.08,-0.02 -0.11,-0.06h-13.5v8.51h13.43c4.46,0 8.05,-1.32 10.77,-3.97c2.69,-2.68 4.02,-6.29 4.02,-10.83v-67.45c0,-1.06 -0.51,-1.59 -1.53,-1.59z" />
			<path id="Layer" class="shp0" d="M442.2,895.53c0,-1.02 -0.49,-1.53 -1.47,-1.53h-5.5c-1.02,0 -1.53,0.51 -1.53,1.53v80.78c0,1.02 0.51,1.53 1.53,1.53h5.5c0.98,0 1.47,-0.51 1.47,-1.53z" />
			<path id="Layer" class="shp0" d="M481.43,920.13c6.77,0 12.55,2.4 17.35,7.2c4.76,4.76 7.14,10.52 7.14,17.29l0,34.58c0,6.19 -2.25,11.54 -6.75,16.04c-4.54,4.53 -9.9,6.8 -16.09,6.8h-12.02c-1.02,0 -1.53,-0.5 -1.53,-1.53v-5.44c0,-1.02 0.51,-1.53 1.53,-1.53h12.02c3.89,0 7.26,-1.42 10.09,-4.26c2.84,-2.84 4.25,-6.19 4.25,-10.08v-1.37l-15.98,0c-6.76,0 -12.52,-2.38 -17.29,-7.14c-4.8,-4.8 -7.2,-10.58 -7.2,-17.34v-8.73c0,-6.77 2.4,-12.53 7.2,-17.29c4.76,-4.79 10.52,-7.19 17.28,-7.19zM492.71,933.34c-3.1,-3.14 -6.86,-4.7 -11.28,-4.7c-4.42,0 -8.2,1.57 -11.33,4.7c-3.1,3.1 -4.65,6.86 -4.65,11.28v8.73c0,4.38 1.55,8.14 4.65,11.28c3.13,3.13 6.91,4.7 11.33,4.7l15.98,0v-24.71c0,-4.42 -1.56,-8.18 -4.7,-11.28z" />
			<path id="Layer" class="shp0" d="M616.68,969.33v8.5h-42.74c-6.76,0 -12.53,-2.4 -17.29,-7.2c-4.8,-4.8 -7.2,-10.58 -7.2,-17.34v-8.67c0,-6.77 2.4,-12.55 7.2,-17.35c4.76,-4.8 10.53,-7.2 17.29,-7.2c6.76,0 12.55,2.4 17.34,7.2c4.77,4.8 7.14,10.58 7.14,17.35v24.71zM585.27,933.29c-3.13,-3.1 -6.91,-4.65 -11.33,-4.65c-4.42,0 -8.18,1.55 -11.28,4.65c-3.14,3.13 -4.71,6.91 -4.71,11.33v8.67c0,4.42 1.57,8.2 4.71,11.34c3.1,3.13 6.86,4.7 11.28,4.7h16.04v-24.71c0,-4.42 -1.56,-8.2 -4.71,-11.33zM561.69,908.62c-1.02,0 -1.53,-0.51 -1.53,-1.53v-6.86c0,-1.02 0.51,-1.53 1.53,-1.53h5.72c1.06,0 1.59,0.51 1.59,1.53v6.86c0,1.02 -0.53,1.53 -1.59,1.53zM577.17,908.62c-1.02,0 -1.53,-0.51 -1.53,-1.53v-6.86c0,-1.02 0.51,-1.53 1.53,-1.53h5.72c1.06,0 1.58,0.51 1.58,1.53v6.86c0,1.02 -0.53,1.53 -1.58,1.53z" />
			<path id="Layer" class="shp0" d="M628.97,977.84c4.42,0 7.99,-1.32 10.71,-3.97c2.72,-2.68 4.08,-6.29 4.08,-10.83v-39.11c0,-1.02 -0.53,-1.53 -1.58,-1.53h-5.38c-1.06,0 -1.59,0.51 -1.59,1.53v39.11c0,2.15 -0.51,3.74 -1.53,4.76c-0.95,0.99 -2.48,1.49 -4.6,1.53h-18.08v8.5zM618.77,988.89c-1.02,0 -1.53,0.52 -1.53,1.58v6.8c0,1.02 0.51,1.53 1.53,1.53h5.73c1.07,0 1.59,-0.51 1.59,-1.53v-6.8c0,-1.06 -0.52,-1.58 -1.59,-1.58zM634.25,988.89c-1.02,0 -1.53,0.52 -1.53,1.58v6.8c0,1.02 0.51,1.53 1.53,1.53h5.73c1.06,0 1.59,-0.51 1.59,-1.53v-6.8c0,-1.06 -0.53,-1.58 -1.59,-1.58z" />
			<path id="Layer" class="shp0" d="M727.38,977.84h-17.58v1.37c0,6.16 -2.26,11.5 -6.8,16.04c-4.5,4.53 -9.84,6.8 -16.05,6.8h-12.07c-0.98,0 -1.48,-0.5 -1.48,-1.53v-5.44c0,-1.02 0.49,-1.53 1.48,-1.53h12.07c3.9,0 7.26,-1.42 10.1,-4.26c2.84,-2.87 4.25,-6.23 4.25,-10.08v-1.37h-15.98c-6.76,0 -12.55,-2.38 -17.35,-7.14c-4.8,-4.8 -7.2,-10.58 -7.2,-17.34v-8.73c0,-6.77 2.4,-12.53 7.2,-17.29c4.8,-4.8 10.58,-7.2 17.35,-7.2c6.73,0 12.49,2.4 17.28,7.2c4.8,4.76 7.2,10.52 7.2,17.29v24.71h17.57zM701.3,944.62c0,-4.42 -1.57,-8.18 -4.71,-11.28c-3.13,-3.14 -6.89,-4.7 -11.28,-4.7c-4.42,0 -8.2,1.57 -11.34,4.7c-3.13,3.1 -4.7,6.86 -4.7,11.28v8.73c0,4.38 1.57,8.14 4.7,11.28c3.14,3.13 6.92,4.7 11.34,4.7h15.98z" />
			<path id="Layer" class="shp0" d="M723.97,977.84l23.64,0v-8.5l-23.64,0z" />
			<path id="Layer" class="shp0" d="M746.48,977.84h23.64v-8.5h-23.64z" />
			<path id="Layer" class="shp0" d="M854.01,977.84h-17.12v0.62c0,6.73 -2.39,12.49 -7.14,17.29c-4.81,4.8 -10.58,7.2 -17.34,7.2c-6.73,0 -12.49,-2.4 -17.29,-7.2c-4.8,-4.8 -7.2,-10.56 -7.2,-17.29v-0.62h-19.5v-8.5h19.5v-24.66c0,-6.76 2.39,-12.55 7.2,-17.35c4.8,-4.76 10.56,-7.14 17.29,-7.14c6.76,0 12.53,2.39 17.34,7.14c4.75,4.8 7.14,10.59 7.14,17.35v8.67c0,6.42 -2.17,11.98 -6.52,16.67c0.68,-0.45 1.43,-0.68 2.26,-0.68h21.37zM796.42,969.33h15.99c4.41,0 8.2,-1.55 11.33,-4.65c3.13,-3.13 4.7,-6.91 4.7,-11.33v-8.67c0,-4.42 -1.57,-8.2 -4.7,-11.34c-3.14,-3.1 -6.92,-4.65 -11.33,-4.65c-4.39,0 -8.15,1.56 -11.29,4.65c-3.13,3.13 -4.7,6.91 -4.7,11.34zM829.07,971.26c-4.65,4.38 -10.21,6.58 -16.66,6.58h-15.99v0.62c0,4.38 1.57,8.15 4.7,11.28c3.14,3.13 6.9,4.7 11.29,4.7c4.41,0 8.2,-1.57 11.33,-4.7c3.13,-3.14 4.7,-6.9 4.7,-11.28v-4.87c0,-0.83 0.2,-1.61 0.63,-2.33z" />
			<path id="Layer" class="shp0" d="M893.17,977.84v-8.51l-5.94,0c-3.4,0 -5.69,-0.6 -6.86,-1.81c-0.64,-0.6 -0.96,-1.59 -0.96,-2.95v-68.98c0,-1.02 -0.53,-1.53 -1.59,-1.53h-5.39c-1.06,0 -1.59,0.51 -1.59,1.53v67.4c0,2.23 -0.48,3.84 -1.47,4.82c-1.02,1.02 -2.55,1.53 -4.59,1.53h-14.17v8.51h14c4.54,0 8.11,-1.32 10.72,-3.97c0.12,-0.11 0.25,-0.28 0.4,-0.51l0.23,0.23c2.8,2.84 7.05,4.25 12.75,4.25l4.47,0z" />
			<path id="Layer" class="shp0" d="M911.03,894c-1.02,0 -1.53,0.53 -1.53,1.59v67.51c0,2.11 -0.51,3.7 -1.53,4.76c-0.94,0.98 -2.48,1.49 -4.59,1.53c-0.04,0 -0.08,-0.02 -0.11,-0.06h-13.5l0,8.51h13.44c4.46,0 8.05,-1.32 10.77,-3.97c2.69,-2.68 4.02,-6.29 4.02,-10.83v-67.45c0,-1.06 -0.51,-1.59 -1.53,-1.59z" />
		</g>
		<g id="Folder 78">
			<path id="Layer" class="shp0" d="M83.23,969.33v8.5h-42.74c-6.77,0 -12.53,-2.4 -17.29,-7.2c-4.8,-4.8 -7.2,-10.58 -7.2,-17.34v-8.67c0,-6.77 2.4,-12.55 7.2,-17.35c4.76,-4.8 10.52,-7.2 17.29,-7.2c6.76,0 12.55,2.4 17.34,7.2c4.76,4.8 7.14,10.58 7.14,17.35v24.71zM56.53,944.62c0,-4.42 -1.57,-8.2 -4.7,-11.33c-3.14,-3.1 -6.92,-4.65 -11.34,-4.65c-4.42,0 -8.18,1.55 -11.28,4.65c-3.14,3.13 -4.7,6.91 -4.7,11.33v8.67c0,4.42 1.57,8.2 4.7,11.34c3.1,3.13 6.86,4.7 11.28,4.7h16.04zM28.24,908.62c-1.02,0 -1.53,-0.51 -1.53,-1.53v-6.86c0,-1.02 0.51,-1.53 1.53,-1.53h5.73c1.06,0 1.59,0.51 1.59,1.53v6.86c0,1.02 -0.53,1.53 -1.59,1.53zM43.72,908.62c-1.02,0 -1.53,-0.51 -1.53,-1.53v-6.86c0,-1.02 0.51,-1.53 1.53,-1.53h5.72c1.06,0 1.59,0.51 1.59,1.53v6.86c0,1.02 -0.53,1.53 -1.59,1.53z" />
			<path id="Layer" class="shp0" d="M78.13,977.84h23.64v-8.5h-23.64z" />
			<path id="Layer" class="shp0" d="M100.63,977.84l23.64,0v-8.5l-23.64,0z" />
			<path id="Layer" class="shp0" d="M168.03,977.84v-8.51h-5.38c-3.4,0 -5.71,-0.6 -6.92,-1.81c-0.65,-0.64 -0.96,-1.63 -0.96,-2.95v-40.58c0,-1.05 -0.53,-1.59 -1.59,-1.59h-5.38c-1.02,0 -1.53,0.53 -1.53,1.59v39c0,2.23 -0.51,3.84 -1.53,4.82c-0.98,1.02 -2.49,1.53 -4.54,1.53h-17.63v8.51h17.4c4.53,0 8.12,-1.32 10.77,-3.97c0.04,-0.04 0.1,-0.11 0.17,-0.23c0.11,-0.11 0.19,-0.2 0.23,-0.28c0.04,0.08 0.1,0.15 0.17,0.23c2.84,2.84 7.09,4.25 12.75,4.25h3.97zM134.53,988.89c-1.02,0 -1.53,0.52 -1.53,1.58v6.8c0,1.02 0.51,1.53 1.53,1.53h5.73c1.05,0 1.58,-0.51 1.58,-1.53v-6.8c0,-1.06 -0.53,-1.58 -1.58,-1.58zM150.06,988.89c-1.06,0 -1.59,0.52 -1.59,1.58v6.8c0,1.02 0.53,1.53 1.59,1.53h5.67c1.06,0 1.59,-0.51 1.59,-1.53v-6.8c0,-1.06 -0.53,-1.58 -1.59,-1.58z" />
			<path id="Layer" class="shp0" d="M267.8,977.84v-8.5h-5.44c-2.68,0 -4.74,-0.71 -6.18,-2.15c-1.1,-1.1 -1.64,-2.5 -1.64,-4.19v-39.06c0,-1.02 -0.51,-1.53 -1.53,-1.53h-5.44c-1.02,0 -1.53,0.51 -1.53,1.53v39.05c0,2.19 -0.51,3.8 -1.53,4.82c-1.06,1.02 -2.62,1.53 -4.7,1.53h-7.32c-3.4,0 -5.71,-0.6 -6.92,-1.81c-0.65,-0.64 -0.96,-1.63 -0.96,-2.95v-37.58c0,-1.02 -0.51,-1.53 -1.53,-1.53h-5.45c-1.02,0 -1.53,0.51 -1.53,1.53v35.99c0,2.23 -0.51,3.84 -1.53,4.82c-0.99,1.02 -2.5,1.53 -4.54,1.53h-7.48c-3.36,0 -5.67,-0.6 -6.91,-1.81c-0.65,-0.68 -0.97,-1.66 -0.97,-2.95v-40.64c0,-1.02 -0.51,-1.53 -1.53,-1.53h-5.44c-1.02,0 -1.53,0.51 -1.53,1.53v39.06c0,2.19 -0.51,3.8 -1.53,4.82c-0.95,1.02 -2.46,1.53 -4.54,1.53h-14.91v8.51h14.68c4.54,0 8.12,-1.32 10.77,-3.97c0.11,-0.11 0.25,-0.28 0.4,-0.51c0,0.04 0.02,0.08 0.06,0.11c0.04,0.04 0.08,0.08 0.12,0.12c2.83,2.84 7.08,4.25 12.75,4.25h5.78c4.57,0 8.18,-1.32 10.83,-3.97h-0.06c0,-0.04 0.15,-0.21 0.45,-0.51c0.04,0.04 0.07,0.08 0.11,0.11c0,0.04 0.02,0.08 0.06,0.12c2.87,2.84 7.12,4.25 12.76,4.25h5.89c4.49,0 8.07,-1.32 10.71,-3.97c0.42,-0.42 0.7,-0.75 0.85,-1.02c0.04,0.08 0.1,0.15 0.17,0.23c0.04,0.07 0.08,0.14 0.12,0.17c3.1,3.06 7.18,4.59 12.25,4.59h3.91z" />
			<path id="Layer" class="shp0" d="M310.42,977.84v-8.51h-5.38c-3.41,0 -5.71,-0.6 -6.92,-1.81c-0.65,-0.64 -0.96,-1.63 -0.96,-2.95v-40.58c0,-1.05 -0.53,-1.59 -1.59,-1.59h-5.38c-1.02,0 -1.53,0.53 -1.53,1.59v39c0,2.23 -0.51,3.84 -1.53,4.82c-0.98,1.02 -2.49,1.53 -4.54,1.53h-17.62v8.51h17.4c4.53,0 8.12,-1.32 10.77,-3.97c0.04,-0.04 0.1,-0.11 0.17,-0.23c0.11,-0.11 0.19,-0.2 0.23,-0.28c0.04,0.08 0.1,0.15 0.17,0.23c2.83,2.84 7.09,4.25 12.76,4.25h3.97zM295.74,908.62c1.05,0 1.58,-0.51 1.58,-1.53v-6.86c0,-1.01 -0.53,-1.53 -1.58,-1.53h-5.73c-1.02,0 -1.53,0.51 -1.53,1.53v6.86c0,1.02 0.51,1.53 1.53,1.53z" />
			<path id="Layer" class="shp0" d="M389.6,977.84v-8.51h-5.44c-3.4,-0.04 -5.67,-0.63 -6.8,-1.76c-0.68,-0.64 -1.02,-1.64 -1.02,-3v-17.63c0,-7.4 -2.62,-13.73 -7.88,-18.99c-5.25,-5.21 -11.58,-7.82 -18.99,-7.82c-11.19,0 -19.69,4.06 -25.51,12.19l-1.59,2.21c-0.19,0.31 -0.28,0.61 -0.28,0.91v0.29c0.07,0.42 0.28,0.75 0.62,1.02l4.42,3.11c0.34,0.27 0.67,0.4 0.97,0.4c0.45,0 0.85,-0.25 1.19,-0.74l1.58,-2.21c4.16,-5.78 10.36,-8.67 18.6,-8.67c5.06,0 9.39,1.79 12.98,5.39c3.59,3.56 5.38,7.86 5.38,12.92v11.17c0,3.85 -0.9,6.71 -2.72,8.56c-1.81,1.74 -4.67,2.62 -8.56,2.66h-48.97v8.5h48.97c6.54,0 11.55,-1.95 15.02,-5.84c0.53,0.72 0.95,1.23 1.25,1.53c2.87,2.88 7.14,4.31 12.81,4.31h3.97zM340.23,988.1c-1.06,0 -1.59,0.52 -1.59,1.59v6.8c0,1.02 0.53,1.53 1.59,1.53h5.72c1.02,0 1.53,-0.51 1.53,-1.53v-6.8c0,-1.06 -0.51,-1.59 -1.53,-1.59z" />
			<path id="Layer" class="shp0" d="M408.02,894c-1.02,0 -1.53,0.53 -1.53,1.59v67.51c0,2.11 -0.51,3.7 -1.53,4.76c-0.94,0.98 -2.47,1.49 -4.59,1.53c-0.04,0 -0.08,-0.02 -0.11,-0.06h-13.5v8.51h13.43c4.46,0 8.05,-1.32 10.77,-3.97c2.69,-2.68 4.02,-6.29 4.02,-10.83v-67.45c0,-1.06 -0.51,-1.59 -1.53,-1.59z" />
			<path id="Layer" class="shp0" d="M442.2,895.53c0,-1.02 -0.49,-1.53 -1.47,-1.53h-5.5c-1.02,0 -1.53,0.51 -1.53,1.53v80.78c0,1.02 0.51,1.53 1.53,1.53h5.5c0.98,0 1.47,-0.51 1.47,-1.53z" />
			<path id="Layer" class="shp0" d="M481.43,920.13c6.77,0 12.55,2.4 17.35,7.2c4.76,4.76 7.14,10.52 7.14,17.29l0,34.58c0,6.19 -2.25,11.54 -6.75,16.04c-4.54,4.53 -9.9,6.8 -16.09,6.8h-12.02c-1.02,0 -1.53,-0.5 -1.53,-1.53v-5.44c0,-1.02 0.51,-1.53 1.53,-1.53h12.02c3.89,0 7.26,-1.42 10.09,-4.26c2.84,-2.84 4.25,-6.19 4.25,-10.08v-1.37l-15.98,0c-6.76,0 -12.52,-2.38 -17.29,-7.14c-4.8,-4.8 -7.2,-10.58 -7.2,-17.34v-8.73c0,-6.77 2.4,-12.53 7.2,-17.29c4.76,-4.79 10.52,-7.19 17.28,-7.19zM492.71,933.34c-3.1,-3.14 -6.86,-4.7 -11.28,-4.7c-4.42,0 -8.2,1.57 -11.33,4.7c-3.1,3.1 -4.65,6.86 -4.65,11.28v8.73c0,4.38 1.55,8.14 4.65,11.28c3.13,3.13 6.91,4.7 11.33,4.7l15.98,0v-24.71c0,-4.42 -1.56,-8.18 -4.7,-11.28z" />
			<path id="Layer" class="shp0" d="M616.68,969.33v8.5h-42.74c-6.76,0 -12.53,-2.4 -17.29,-7.2c-4.8,-4.8 -7.2,-10.58 -7.2,-17.34v-8.67c0,-6.77 2.4,-12.55 7.2,-17.35c4.76,-4.8 10.53,-7.2 17.29,-7.2c6.76,0 12.55,2.4 17.34,7.2c4.77,4.8 7.14,10.58 7.14,17.35v24.71zM585.27,933.29c-3.13,-3.1 -6.91,-4.65 -11.33,-4.65c-4.42,0 -8.18,1.55 -11.28,4.65c-3.14,3.13 -4.71,6.91 -4.71,11.33v8.67c0,4.42 1.57,8.2 4.71,11.34c3.1,3.13 6.86,4.7 11.28,4.7h16.04v-24.71c0,-4.42 -1.56,-8.2 -4.71,-11.33zM561.69,908.62c-1.02,0 -1.53,-0.51 -1.53,-1.53v-6.86c0,-1.02 0.51,-1.53 1.53,-1.53h5.72c1.06,0 1.59,0.51 1.59,1.53v6.86c0,1.02 -0.53,1.53 -1.59,1.53zM577.17,908.62c-1.02,0 -1.53,-0.51 -1.53,-1.53v-6.86c0,-1.02 0.51,-1.53 1.53,-1.53h5.72c1.06,0 1.58,0.51 1.58,1.53v6.86c0,1.02 -0.53,1.53 -1.58,1.53z" />
			<path id="Layer" class="shp0" d="M628.97,977.84c4.42,0 7.99,-1.32 10.71,-3.97c2.72,-2.68 4.08,-6.29 4.08,-10.83v-39.11c0,-1.02 -0.53,-1.53 -1.58,-1.53h-5.38c-1.06,0 -1.59,0.51 -1.59,1.53v39.11c0,2.15 -0.51,3.74 -1.53,4.76c-0.95,0.99 -2.48,1.49 -4.6,1.53h-18.08v8.5zM618.77,988.89c-1.02,0 -1.53,0.52 -1.53,1.58v6.8c0,1.02 0.51,1.53 1.53,1.53h5.73c1.07,0 1.59,-0.51 1.59,-1.53v-6.8c0,-1.06 -0.52,-1.58 -1.59,-1.58zM634.25,988.89c-1.02,0 -1.53,0.52 -1.53,1.58v6.8c0,1.02 0.51,1.53 1.53,1.53h5.73c1.06,0 1.59,-0.51 1.59,-1.53v-6.8c0,-1.06 -0.53,-1.58 -1.59,-1.58z" />
			<path id="Layer" class="shp0" d="M727.38,977.84h-17.58v1.37c0,6.16 -2.26,11.5 -6.8,16.04c-4.5,4.53 -9.84,6.8 -16.05,6.8h-12.07c-0.98,0 -1.48,-0.5 -1.48,-1.53v-5.44c0,-1.02 0.49,-1.53 1.48,-1.53h12.07c3.9,0 7.26,-1.42 10.1,-4.26c2.84,-2.87 4.25,-6.23 4.25,-10.08v-1.37h-15.98c-6.76,0 -12.55,-2.38 -17.35,-7.14c-4.8,-4.8 -7.2,-10.58 -7.2,-17.34v-8.73c0,-6.77 2.4,-12.53 7.2,-17.29c4.8,-4.8 10.58,-7.2 17.35,-7.2c6.73,0 12.49,2.4 17.28,7.2c4.8,4.76 7.2,10.52 7.2,17.29v24.71h17.57zM701.3,944.62c0,-4.42 -1.57,-8.18 -4.71,-11.28c-3.13,-3.14 -6.89,-4.7 -11.28,-4.7c-4.42,0 -8.2,1.57 -11.34,4.7c-3.13,3.1 -4.7,6.86 -4.7,11.28v8.73c0,4.38 1.57,8.14 4.7,11.28c3.14,3.13 6.92,4.7 11.34,4.7h15.98z" />
			<path id="Layer" class="shp0" d="M723.97,977.84l23.64,0v-8.5l-23.64,0z" />
			<path id="Layer" class="shp0" d="M746.48,977.84h23.64v-8.5h-23.64z" />
			<path id="Layer" class="shp0" d="M854.01,977.84h-17.12v0.62c0,6.73 -2.39,12.49 -7.14,17.29c-4.81,4.8 -10.58,7.2 -17.34,7.2c-6.73,0 -12.49,-2.4 -17.29,-7.2c-4.8,-4.8 -7.2,-10.56 -7.2,-17.29v-0.62h-19.5v-8.5h19.5v-24.66c0,-6.76 2.39,-12.55 7.2,-17.35c4.8,-4.76 10.56,-7.14 17.29,-7.14c6.76,0 12.53,2.39 17.34,7.14c4.75,4.8 7.14,10.59 7.14,17.35v8.67c0,6.42 -2.17,11.98 -6.52,16.67c0.68,-0.45 1.43,-0.68 2.26,-0.68h21.37zM796.42,969.33h15.99c4.41,0 8.2,-1.55 11.33,-4.65c3.13,-3.13 4.7,-6.91 4.7,-11.33v-8.67c0,-4.42 -1.57,-8.2 -4.7,-11.34c-3.14,-3.1 -6.92,-4.65 -11.33,-4.65c-4.39,0 -8.15,1.56 -11.29,4.65c-3.13,3.13 -4.7,6.91 -4.7,11.34zM829.07,971.26c-4.65,4.38 -10.21,6.58 -16.66,6.58h-15.99v0.62c0,4.38 1.57,8.15 4.7,11.28c3.14,3.13 6.9,4.7 11.29,4.7c4.41,0 8.2,-1.57 11.33,-4.7c3.13,-3.14 4.7,-6.9 4.7,-11.28v-4.87c0,-0.83 0.2,-1.61 0.63,-2.33z" />
			<path id="Layer" class="shp0" d="M893.17,977.84v-8.51l-5.94,0c-3.4,0 -5.69,-0.6 -6.86,-1.81c-0.64,-0.6 -0.96,-1.59 -0.96,-2.95v-68.98c0,-1.02 -0.53,-1.53 -1.59,-1.53h-5.39c-1.06,0 -1.59,0.51 -1.59,1.53v67.4c0,2.23 -0.48,3.84 -1.47,4.82c-1.02,1.02 -2.55,1.53 -4.59,1.53h-14.17v8.51h14c4.54,0 8.11,-1.32 10.72,-3.97c0.12,-0.11 0.25,-0.28 0.4,-0.51l0.23,0.23c2.8,2.84 7.05,4.25 12.75,4.25l4.47,0z" />
			<path id="Layer" class="shp0" d="M911.03,894c-1.02,0 -1.53,0.53 -1.53,1.59v67.51c0,2.11 -0.51,3.7 -1.53,4.76c-0.94,0.98 -2.48,1.49 -4.59,1.53c-0.04,0 -0.08,-0.02 -0.11,-0.06h-13.5l0,8.51h13.44c4.46,0 8.05,-1.32 10.77,-3.97c2.69,-2.68 4.02,-6.29 4.02,-10.83v-67.45c0,-1.06 -0.51,-1.59 -1.53,-1.59z" />
		</g>
		<g id="Layer">
		</g>
	</g>
</svg>